<svg width="397" height="580" viewBox="0 0 397 580" fill="none" xmlns="http://www.w3.org/2000/svg">
<g clip-path="url(#clip0_112_2194)">
<g filter="url(#filter0_b_112_2194)">
<path d="M13 32C13 23.1634 20.1634 16 29 16H198.5H368C376.837 16 384 23.1634 384 32V392C384 400.837 376.837 408 368 408H29C20.1635 408 13 400.837 13 392V32Z" fill="#DDEBF5" fill-opacity="0.7"/>
</g>
<rect x="13" y="408" width="371" height="146" rx="16" fill="#DDEBF5" fill-opacity="0.7"/>
<g filter="url(#filter1_d_112_2194)">
<path d="M157 10C157 7.79086 158.791 6 161 6H236C238.209 6 240 7.79086 240 10V16H157V10Z" fill="#2196F3"/>
</g>
<circle cx="13" cy="408" r="20" fill="white"/>
<circle cx="384" cy="408" r="20" fill="white"/>
<path d="M364 408L33 408" stroke="#7C87AA" stroke-linejoin="round" stroke-dasharray="8 8"/>
<path d="M39.58 60C39.3133 60 39.1067 59.9267 38.96 59.78C38.8133 59.62 38.74 59.4067 38.74 59.14V46.66C38.74 46.38 38.8067 46.1667 38.94 46.02C39.0867 45.8733 39.2933 45.8 39.56 45.8C39.8267 45.8 40.0267 45.8733 40.16 46.02C40.3067 46.1667 40.38 46.38 40.38 46.66V58.56H46.94C47.18 58.56 47.3667 58.6267 47.5 58.76C47.6333 58.88 47.7 59.0533 47.7 59.28C47.7 59.5067 47.6333 59.6867 47.5 59.82C47.3667 59.94 47.18 60 46.94 60H39.58ZM50.1794 60.1C49.9127 60.1 49.7127 60.0267 49.5794 59.88C49.446 59.72 49.3794 59.5 49.3794 59.22V51.04C49.3794 50.76 49.446 50.5467 49.5794 50.4C49.7127 50.2533 49.9127 50.18 50.1794 50.18C50.4327 50.18 50.6327 50.2533 50.7794 50.4C50.926 50.5467 50.9994 50.76 50.9994 51.04V59.22C50.9994 59.5 50.926 59.72 50.7794 59.88C50.646 60.0267 50.446 60.1 50.1794 60.1ZM50.1794 47.94C49.846 47.94 49.586 47.8533 49.3994 47.68C49.2127 47.4933 49.1194 47.2467 49.1194 46.94C49.1194 46.62 49.2127 46.38 49.3994 46.22C49.586 46.0467 49.846 45.96 50.1794 45.96C50.526 45.96 50.786 46.0467 50.9594 46.22C51.146 46.38 51.2394 46.62 51.2394 46.94C51.2394 47.2467 51.146 47.4933 50.9594 47.68C50.786 47.8533 50.526 47.94 50.1794 47.94ZM57.3078 60.18C56.7078 60.18 56.1011 60.1067 55.4878 59.96C54.8878 59.8133 54.3278 59.56 53.8078 59.2C53.6745 59.1067 53.5811 59 53.5278 58.88C53.4745 58.7467 53.4545 58.62 53.4678 58.5C53.4945 58.3667 53.5478 58.2533 53.6278 58.16C53.7211 58.0667 53.8278 58.0133 53.9478 58C54.0811 57.9733 54.2278 58 54.3878 58.08C54.9078 58.4 55.4078 58.6267 55.8878 58.76C56.3811 58.88 56.8678 58.94 57.3478 58.94C58.1078 58.94 58.6811 58.8 59.0678 58.52C59.4545 58.24 59.6478 57.86 59.6478 57.38C59.6478 57.0067 59.5211 56.7133 59.2678 56.5C59.0145 56.2733 58.6145 56.1 58.0678 55.98L56.2478 55.58C55.4078 55.4067 54.7811 55.1067 54.3678 54.68C53.9678 54.2533 53.7678 53.7 53.7678 53.02C53.7678 52.42 53.9211 51.9067 54.2278 51.48C54.5478 51.04 54.9945 50.7 55.5678 50.46C56.1411 50.22 56.8078 50.1 57.5678 50.1C58.1545 50.1 58.7078 50.18 59.2278 50.34C59.7611 50.4867 60.2411 50.7267 60.6678 51.06C60.8011 51.1533 60.8878 51.2667 60.9278 51.4C60.9811 51.52 60.9878 51.6467 60.9478 51.78C60.9211 51.9 60.8611 52.0067 60.7678 52.1C60.6745 52.18 60.5611 52.2267 60.4278 52.24C60.2945 52.2533 60.1545 52.2133 60.0078 52.12C59.6078 51.8533 59.2011 51.66 58.7878 51.54C58.3745 51.4067 57.9678 51.34 57.5678 51.34C56.8211 51.34 56.2545 51.4867 55.8678 51.78C55.4811 52.0733 55.2878 52.46 55.2878 52.94C55.2878 53.3133 55.4078 53.62 55.6478 53.86C55.8878 54.1 56.2611 54.2733 56.7678 54.38L58.5878 54.76C59.4545 54.9467 60.1011 55.2467 60.5278 55.66C60.9678 56.06 61.1878 56.6067 61.1878 57.3C61.1878 58.18 60.8345 58.88 60.1278 59.4C59.4211 59.92 58.4811 60.18 57.3078 60.18ZM67.4591 60.18C66.6991 60.18 66.0591 60.0467 65.5391 59.78C65.0324 59.5 64.6524 59.1 64.3991 58.58C64.1457 58.0467 64.0191 57.4 64.0191 56.64V51.54H62.6791C62.4524 51.54 62.2791 51.4867 62.1591 51.38C62.0391 51.26 61.9791 51.1 61.9791 50.9C61.9791 50.7 62.0391 50.5467 62.1591 50.44C62.2791 50.3333 62.4524 50.28 62.6791 50.28H64.0191V47.98C64.0191 47.7133 64.0924 47.5133 64.2391 47.38C64.3857 47.2333 64.5857 47.16 64.8391 47.16C65.0924 47.16 65.2857 47.2333 65.4191 47.38C65.5657 47.5133 65.6391 47.7133 65.6391 47.98V50.28H68.1591C68.3857 50.28 68.5591 50.3333 68.6791 50.44C68.7991 50.5467 68.8591 50.7 68.8591 50.9C68.8591 51.1 68.7991 51.26 68.6791 51.38C68.5591 51.4867 68.3857 51.54 68.1591 51.54H65.6391V56.48C65.6391 57.24 65.7991 57.82 66.1191 58.22C66.4391 58.6067 66.9591 58.8 67.6791 58.8C67.9324 58.8 68.1457 58.7733 68.3191 58.72C68.5057 58.6667 68.6591 58.64 68.7791 58.64C68.8991 58.6267 68.9991 58.6667 69.0791 58.76C69.1591 58.8533 69.1991 59.0133 69.1991 59.24C69.1991 59.4 69.1657 59.5467 69.0991 59.68C69.0457 59.8133 68.9457 59.9067 68.7991 59.96C68.6391 60.0133 68.4257 60.06 68.1591 60.1C67.9057 60.1533 67.6724 60.18 67.4591 60.18ZM73.6113 60.18C72.9446 60.18 72.3446 60.0533 71.8113 59.8C71.2913 59.5333 70.8779 59.1733 70.5713 58.72C70.2646 58.2667 70.1113 57.76 70.1113 57.2C70.1113 56.48 70.2913 55.9133 70.6513 55.5C71.0246 55.0867 71.6313 54.7933 72.4713 54.62C73.3246 54.4467 74.4846 54.36 75.9513 54.36H76.8513V55.42H75.9713C74.8913 55.42 74.0379 55.4733 73.4113 55.58C72.7979 55.6733 72.3646 55.84 72.1113 56.08C71.8713 56.32 71.7513 56.66 71.7513 57.1C71.7513 57.6467 71.9379 58.0933 72.3113 58.44C72.6979 58.7867 73.2179 58.96 73.8713 58.96C74.4046 58.96 74.8713 58.8333 75.2713 58.58C75.6846 58.3267 76.0046 57.98 76.2313 57.54C76.4713 57.1 76.5913 56.5933 76.5913 56.02V53.74C76.5913 52.9133 76.4246 52.32 76.0913 51.96C75.7579 51.5867 75.2113 51.4 74.4513 51.4C73.9846 51.4 73.5179 51.46 73.0513 51.58C72.5846 51.7 72.0913 51.8933 71.5713 52.16C71.3846 52.2533 71.2246 52.2867 71.0913 52.26C70.9579 52.22 70.8513 52.1467 70.7713 52.04C70.6913 51.9333 70.6446 51.8133 70.6313 51.68C70.6179 51.5333 70.6446 51.3933 70.7113 51.26C70.7913 51.1267 70.9113 51.02 71.0713 50.94C71.6579 50.6467 72.2379 50.4333 72.8113 50.3C73.3846 50.1667 73.9313 50.1 74.4513 50.1C75.2913 50.1 75.9846 50.24 76.5313 50.52C77.0779 50.7867 77.4846 51.2 77.7513 51.76C78.0179 52.3067 78.1513 53.0133 78.1513 53.88V59.3C78.1513 59.5667 78.0846 59.7733 77.9513 59.92C77.8313 60.0667 77.6513 60.14 77.4113 60.14C77.1579 60.14 76.9646 60.0667 76.8313 59.92C76.6979 59.7733 76.6313 59.5667 76.6313 59.3V57.74H76.8113C76.7046 58.2467 76.4979 58.68 76.1913 59.04C75.8979 59.4 75.5313 59.68 75.0913 59.88C74.6513 60.08 74.1579 60.18 73.6113 60.18ZM90.013 60.18C89.1463 60.18 88.3863 59.9733 87.733 59.56C87.093 59.1467 86.593 58.5667 86.233 57.82C85.8863 57.06 85.713 56.1667 85.713 55.14C85.713 54.1 85.8863 53.2067 86.233 52.46C86.593 51.7 87.093 51.12 87.733 50.72C88.3863 50.3067 89.1463 50.1 90.013 50.1C90.893 50.1 91.6463 50.32 92.273 50.76C92.8996 51.2 93.3196 51.7933 93.533 52.54H93.313V46.58C93.313 46.3133 93.3796 46.1133 93.513 45.98C93.6596 45.8333 93.8663 45.76 94.133 45.76C94.3863 45.76 94.5796 45.8333 94.713 45.98C94.8596 46.1133 94.933 46.3133 94.933 46.58V59.3C94.933 59.5667 94.8663 59.7733 94.733 59.92C94.5996 60.0667 94.3996 60.14 94.133 60.14C93.8796 60.14 93.6796 60.0667 93.533 59.92C93.3996 59.7733 93.333 59.5667 93.333 59.3V57.4L93.553 57.68C93.3396 58.44 92.913 59.0467 92.273 59.5C91.6463 59.9533 90.893 60.18 90.013 60.18ZM90.353 58.88C90.953 58.88 91.4796 58.7333 91.933 58.44C92.3863 58.1467 92.733 57.72 92.973 57.16C93.2263 56.6 93.353 55.9267 93.353 55.14C93.353 53.9267 93.0796 53 92.533 52.36C91.9996 51.72 91.273 51.4 90.353 51.4C89.7396 51.4 89.2063 51.5467 88.753 51.84C88.313 52.12 87.9663 52.54 87.713 53.1C87.473 53.6467 87.353 54.3267 87.353 55.14C87.353 56.34 87.6263 57.2667 88.173 57.92C88.7196 58.56 89.4463 58.88 90.353 58.88ZM102.353 60.18C101.326 60.18 100.44 59.98 99.6931 59.58C98.9598 59.1667 98.3865 58.5867 97.9731 57.84C97.5731 57.0933 97.3731 56.2 97.3731 55.16C97.3731 54.1467 97.5731 53.2667 97.9731 52.52C98.3731 51.76 98.9198 51.1667 99.6131 50.74C100.32 50.3133 101.133 50.1 102.053 50.1C102.706 50.1 103.293 50.2133 103.813 50.44C104.333 50.6533 104.773 50.9667 105.133 51.38C105.506 51.7933 105.786 52.2933 105.973 52.88C106.173 53.4667 106.273 54.1267 106.273 54.86C106.273 55.0733 106.213 55.2333 106.093 55.34C105.973 55.4333 105.8 55.48 105.573 55.48H98.6131V54.42H105.193L104.873 54.68C104.873 53.96 104.766 53.3533 104.553 52.86C104.34 52.3533 104.026 51.9667 103.613 51.7C103.213 51.4333 102.706 51.3 102.093 51.3C101.413 51.3 100.833 51.46 100.353 51.78C99.8865 52.0867 99.5331 52.52 99.2931 53.08C99.0531 53.6267 98.9331 54.2667 98.9331 55V55.12C98.9331 56.3467 99.2265 57.28 99.8131 57.92C100.413 58.56 101.26 58.88 102.353 58.88C102.806 58.88 103.253 58.82 103.693 58.7C104.146 58.58 104.586 58.38 105.013 58.1C105.2 57.98 105.366 57.9267 105.513 57.94C105.673 57.94 105.8 57.9867 105.893 58.08C105.986 58.16 106.046 58.2667 106.073 58.4C106.113 58.52 106.1 58.6533 106.033 58.8C105.98 58.9467 105.866 59.0733 105.693 59.18C105.253 59.5 104.733 59.7467 104.133 59.92C103.533 60.0933 102.94 60.18 102.353 60.18ZM114.574 60.1C114.307 60.1 114.107 60.0267 113.974 59.88C113.841 59.72 113.774 59.5 113.774 59.22V51.04C113.774 50.76 113.841 50.5467 113.974 50.4C114.107 50.2533 114.307 50.18 114.574 50.18C114.827 50.18 115.027 50.2533 115.174 50.4C115.321 50.5467 115.394 50.76 115.394 51.04V59.22C115.394 59.5 115.321 59.72 115.174 59.88C115.041 60.0267 114.841 60.1 114.574 60.1ZM114.574 47.94C114.241 47.94 113.981 47.8533 113.794 47.68C113.607 47.4933 113.514 47.2467 113.514 46.94C113.514 46.62 113.607 46.38 113.794 46.22C113.981 46.0467 114.241 45.96 114.574 45.96C114.921 45.96 115.181 46.0467 115.354 46.22C115.541 46.38 115.634 46.62 115.634 46.94C115.634 47.2467 115.541 47.4933 115.354 47.68C115.181 47.8533 114.921 47.94 114.574 47.94ZM122.322 60.18C121.562 60.18 120.922 60.0467 120.402 59.78C119.896 59.5 119.516 59.1 119.262 58.58C119.009 58.0467 118.882 57.4 118.882 56.64V51.54H117.542C117.316 51.54 117.142 51.4867 117.022 51.38C116.902 51.26 116.842 51.1 116.842 50.9C116.842 50.7 116.902 50.5467 117.022 50.44C117.142 50.3333 117.316 50.28 117.542 50.28H118.882V47.98C118.882 47.7133 118.956 47.5133 119.102 47.38C119.249 47.2333 119.449 47.16 119.702 47.16C119.956 47.16 120.149 47.2333 120.282 47.38C120.429 47.5133 120.502 47.7133 120.502 47.98V50.28H123.022C123.249 50.28 123.422 50.3333 123.542 50.44C123.662 50.5467 123.722 50.7 123.722 50.9C123.722 51.1 123.662 51.26 123.542 51.38C123.422 51.4867 123.249 51.54 123.022 51.54H120.502V56.48C120.502 57.24 120.662 57.82 120.982 58.22C121.302 58.6067 121.822 58.8 122.542 58.8C122.796 58.8 123.009 58.7733 123.182 58.72C123.369 58.6667 123.522 58.64 123.642 58.64C123.762 58.6267 123.862 58.6667 123.942 58.76C124.022 58.8533 124.062 59.0133 124.062 59.24C124.062 59.4 124.029 59.5467 123.962 59.68C123.909 59.8133 123.809 59.9067 123.662 59.96C123.502 60.0133 123.289 60.06 123.022 60.1C122.769 60.1533 122.536 60.18 122.322 60.18ZM129.697 60.18C128.67 60.18 127.784 59.98 127.037 59.58C126.304 59.1667 125.73 58.5867 125.317 57.84C124.917 57.0933 124.717 56.2 124.717 55.16C124.717 54.1467 124.917 53.2667 125.317 52.52C125.717 51.76 126.264 51.1667 126.957 50.74C127.664 50.3133 128.477 50.1 129.397 50.1C130.05 50.1 130.637 50.2133 131.157 50.44C131.677 50.6533 132.117 50.9667 132.477 51.38C132.85 51.7933 133.13 52.2933 133.317 52.88C133.517 53.4667 133.617 54.1267 133.617 54.86C133.617 55.0733 133.557 55.2333 133.437 55.34C133.317 55.4333 133.144 55.48 132.917 55.48H125.957V54.42H132.537L132.217 54.68C132.217 53.96 132.11 53.3533 131.897 52.86C131.684 52.3533 131.37 51.9667 130.957 51.7C130.557 51.4333 130.05 51.3 129.437 51.3C128.757 51.3 128.177 51.46 127.697 51.78C127.23 52.0867 126.877 52.52 126.637 53.08C126.397 53.6267 126.277 54.2667 126.277 55V55.12C126.277 56.3467 126.57 57.28 127.157 57.92C127.757 58.56 128.604 58.88 129.697 58.88C130.15 58.88 130.597 58.82 131.037 58.7C131.49 58.58 131.93 58.38 132.357 58.1C132.544 57.98 132.71 57.9267 132.857 57.94C133.017 57.94 133.144 57.9867 133.237 58.08C133.33 58.16 133.39 58.2667 133.417 58.4C133.457 58.52 133.444 58.6533 133.377 58.8C133.324 58.9467 133.21 59.0733 133.037 59.18C132.597 59.5 132.077 59.7467 131.477 59.92C130.877 60.0933 130.284 60.18 129.697 60.18ZM136.761 60.14C136.495 60.14 136.295 60.0667 136.161 59.92C136.028 59.7733 135.961 59.5667 135.961 59.3V50.96C135.961 50.6933 136.028 50.4933 136.161 50.36C136.295 50.2133 136.488 50.14 136.741 50.14C136.995 50.14 137.188 50.2133 137.321 50.36C137.468 50.4933 137.541 50.6933 137.541 50.96V52.68L137.321 52.44C137.601 51.6667 138.055 51.0867 138.681 50.7C139.321 50.3 140.055 50.1 140.881 50.1C141.655 50.1 142.295 50.24 142.801 50.52C143.321 50.8 143.708 51.2267 143.961 51.8C144.215 52.36 144.341 53.0733 144.341 53.94V59.3C144.341 59.5667 144.268 59.7733 144.121 59.92C143.988 60.0667 143.795 60.14 143.541 60.14C143.275 60.14 143.068 60.0667 142.921 59.92C142.788 59.7733 142.721 59.5667 142.721 59.3V54.04C142.721 53.1333 142.541 52.4733 142.181 52.06C141.835 51.6333 141.275 51.42 140.501 51.42C139.608 51.42 138.895 51.7 138.361 52.26C137.841 52.8067 137.581 53.54 137.581 54.46V59.3C137.581 59.86 137.308 60.14 136.761 60.14ZM150.609 60.18C150.009 60.18 149.402 60.1067 148.789 59.96C148.189 59.8133 147.629 59.56 147.109 59.2C146.975 59.1067 146.882 59 146.829 58.88C146.775 58.7467 146.755 58.62 146.769 58.5C146.795 58.3667 146.849 58.2533 146.929 58.16C147.022 58.0667 147.129 58.0133 147.249 58C147.382 57.9733 147.529 58 147.689 58.08C148.209 58.4 148.709 58.6267 149.189 58.76C149.682 58.88 150.169 58.94 150.649 58.94C151.409 58.94 151.982 58.8 152.369 58.52C152.755 58.24 152.949 57.86 152.949 57.38C152.949 57.0067 152.822 56.7133 152.569 56.5C152.315 56.2733 151.915 56.1 151.369 55.98L149.549 55.58C148.709 55.4067 148.082 55.1067 147.669 54.68C147.269 54.2533 147.069 53.7 147.069 53.02C147.069 52.42 147.222 51.9067 147.529 51.48C147.849 51.04 148.295 50.7 148.869 50.46C149.442 50.22 150.109 50.1 150.869 50.1C151.455 50.1 152.009 50.18 152.529 50.34C153.062 50.4867 153.542 50.7267 153.969 51.06C154.102 51.1533 154.189 51.2667 154.229 51.4C154.282 51.52 154.289 51.6467 154.249 51.78C154.222 51.9 154.162 52.0067 154.069 52.1C153.975 52.18 153.862 52.2267 153.729 52.24C153.595 52.2533 153.455 52.2133 153.309 52.12C152.909 51.8533 152.502 51.66 152.089 51.54C151.675 51.4067 151.269 51.34 150.869 51.34C150.122 51.34 149.555 51.4867 149.169 51.78C148.782 52.0733 148.589 52.46 148.589 52.94C148.589 53.3133 148.709 53.62 148.949 53.86C149.189 54.1 149.562 54.2733 150.069 54.38L151.889 54.76C152.755 54.9467 153.402 55.2467 153.829 55.66C154.269 56.06 154.489 56.6067 154.489 57.3C154.489 58.18 154.135 58.88 153.429 59.4C152.722 59.92 151.782 60.18 150.609 60.18Z" fill="#253058"/>
</g>
<defs>
<filter id="filter0_b_112_2194" x="-19" y="-16" width="435" height="456" filterUnits="userSpaceOnUse" color-interpolation-filters="sRGB">
<feFlood flood-opacity="0" result="BackgroundImageFix"/>
<feGaussianBlur in="BackgroundImageFix" stdDeviation="16"/>
<feComposite in2="SourceAlpha" operator="in" result="effect1_backgroundBlur_112_2194"/>
<feBlend mode="normal" in="SourceGraphic" in2="effect1_backgroundBlur_112_2194" result="shape"/>
</filter>
<filter id="filter1_d_112_2194" x="143" y="-1" width="111" height="38" filterUnits="userSpaceOnUse" color-interpolation-filters="sRGB">
<feFlood flood-opacity="0" result="BackgroundImageFix"/>
<feColorMatrix in="SourceAlpha" type="matrix" values="0 0 0 0 0 0 0 0 0 0 0 0 0 0 0 0 0 0 127 0" result="hardAlpha"/>
<feMorphology radius="2" operator="erode" in="SourceAlpha" result="effect1_dropShadow_112_2194"/>
<feOffset dy="7"/>
<feGaussianBlur stdDeviation="8"/>
<feComposite in2="hardAlpha" operator="out"/>
<feColorMatrix type="matrix" values="0 0 0 0 0.129412 0 0 0 0 0.588235 0 0 0 0 0.952941 0 0 0 1 0"/>
<feBlend mode="normal" in2="BackgroundImageFix" result="effect1_dropShadow_112_2194"/>
<feBlend mode="normal" in="SourceGraphic" in2="effect1_dropShadow_112_2194" result="shape"/>
</filter>
<clipPath id="clip0_112_2194">
<rect width="397" height="579.846" rx="12" fill="white"/>
</clipPath>
</defs>
</svg>
