<svg width="24" height="23" viewBox="0 0 24 23" fill="none" xmlns="http://www.w3.org/2000/svg">
<path d="M10.191 22.6862C10.6204 22.6763 11.0325 22.5149 11.3544 22.2304C11.6762 21.946 11.8871 21.5569 11.9498 21.132H8.36414C8.42854 21.5684 8.6493 21.9667 8.98535 22.2526C9.3214 22.5385 9.74987 22.6926 10.191 22.6862Z" fill="black"/>
<path d="M20.0822 18.2895C19.4248 17.7035 18.8493 17.0317 18.3712 16.2922C17.8491 15.2714 17.5363 14.1566 17.4509 13.0133V9.64582C17.4481 9.23678 17.4116 8.82867 17.3418 8.42562C16.8053 8.31837 16.2896 8.125 15.8149 7.85301C15.9958 8.43574 16.0878 9.04246 16.0875 9.65264V13.0201C16.1711 14.4149 16.5548 15.7751 17.2123 17.0079C17.6829 17.7537 18.2414 18.4403 18.8756 19.053H1.41783C2.05207 18.4403 2.61049 17.7537 3.08112 17.0079C3.73868 15.7751 4.12234 14.4149 4.20589 13.0201V9.64582C4.2023 8.85691 4.35437 8.07504 4.65337 7.34497C4.95238 6.61491 5.39246 5.95099 5.94841 5.39124C6.50436 4.83149 7.16526 4.3869 7.89327 4.08293C8.62128 3.77896 9.4021 3.62158 10.191 3.61979C11.3456 3.62071 12.4743 3.96217 13.4358 4.60141C13.3298 4.21216 13.2703 3.81172 13.2586 3.40847V2.97901C12.5468 2.62888 11.7822 2.39856 10.9954 2.29734V1.43842C10.9954 1.19706 10.8995 0.965592 10.7289 0.794926C10.5582 0.62426 10.3267 0.528381 10.0854 0.528381C9.84401 0.528381 9.61254 0.62426 9.44187 0.794926C9.2712 0.965592 9.17533 1.19706 9.17533 1.43842V2.33142C7.41368 2.57993 5.80141 3.45738 4.63618 4.80177C3.47095 6.14617 2.83144 7.86674 2.83572 9.64582V13.0133C2.75034 14.1566 2.43747 15.2714 1.91545 16.2922C1.4457 17.03 0.879436 17.7017 0.23171 18.2895C0.158996 18.3534 0.100719 18.432 0.0607565 18.5202C0.0207939 18.6083 6.1528e-05 18.704 -6.10352e-05 18.8008V19.7278C-6.10352e-05 19.9086 0.0717584 20.082 0.199598 20.2099C0.327437 20.3377 0.500825 20.4095 0.681617 20.4095H19.6323C19.8131 20.4095 19.9864 20.3377 20.1143 20.2099C20.2421 20.082 20.3139 19.9086 20.3139 19.7278V18.8008C20.3138 18.704 20.2931 18.6083 20.2531 18.5202C20.2132 18.432 20.1549 18.3534 20.0822 18.2895Z" fill="black"/>
<g filter="url(#filter0_d_104_722)">
<path d="M18.3711 6.81678C20.2535 6.81678 21.7795 5.29079 21.7795 3.40839C21.7795 1.52599 20.2535 0 18.3711 0C16.4887 0 14.9627 1.52599 14.9627 3.40839C14.9627 5.29079 16.4887 6.81678 18.3711 6.81678Z" fill="#FF4B12"/>
</g>
<defs>
<filter id="filter0_d_104_722" x="12.874" y="0" width="10.9942" height="10.9942" filterUnits="userSpaceOnUse" color-interpolation-filters="sRGB">
<feFlood flood-opacity="0" result="BackgroundImageFix"/>
<feColorMatrix in="SourceAlpha" type="matrix" values="0 0 0 0 0 0 0 0 0 0 0 0 0 0 0 0 0 0 127 0" result="hardAlpha"/>
<feOffset dy="2.08874"/>
<feGaussianBlur stdDeviation="1.04437"/>
<feComposite in2="hardAlpha" operator="out"/>
<feColorMatrix type="matrix" values="0 0 0 0 0 0 0 0 0 0 0 0 0 0 0 0 0 0 0.25 0"/>
<feBlend mode="normal" in2="BackgroundImageFix" result="effect1_dropShadow_104_722"/>
<feBlend mode="normal" in="SourceGraphic" in2="effect1_dropShadow_104_722" result="shape"/>
</filter>
</defs>
</svg>
