<svg width="17" height="13" viewBox="0 0 17 13" fill="none" xmlns="http://www.w3.org/2000/svg">
<path d="M8.49992 10.1562C6.48516 10.1562 4.85422 8.66554 4.70415 6.7765L1.91775 4.7181C1.55145 5.15736 1.21438 5.62175 0.942377 6.12955C0.881613 6.24445 0.849954 6.37139 0.849954 6.50013C0.849954 6.62887 0.881613 6.75581 0.942377 6.8707C2.38286 9.55725 5.2346 11.3749 8.49992 11.3749C9.21471 11.3749 9.90427 11.2734 10.5689 11.1094L9.19054 10.0899C8.96291 10.132 8.73175 10.1542 8.49992 10.1562ZM16.8357 11.6314L13.8993 9.46204C14.7913 8.74347 15.5249 7.86252 16.0575 6.87045C16.1182 6.75555 16.1499 6.62861 16.1499 6.49987C16.1499 6.37113 16.1182 6.24419 16.0575 6.1293C14.617 3.44275 11.7652 1.62505 8.49992 1.62505C7.13235 1.62663 5.78699 1.95573 4.58674 2.58227L1.20747 0.0856322C1.1634 0.0528551 1.11301 0.0286995 1.05918 0.0145455C1.00534 0.000391591 0.949112 -0.00348318 0.893708 0.00314262C0.838304 0.00976843 0.784809 0.026765 0.73628 0.0531609C0.687751 0.0795569 0.645138 0.114835 0.610878 0.156979L0.0894579 0.798594C0.020289 0.883647 -0.0107052 0.99148 0.00329218 1.09837C0.0172895 1.20527 0.0751321 1.30247 0.164098 1.36861L15.7924 12.9144C15.8364 12.9471 15.8868 12.9713 15.9407 12.9855C15.9945 12.9996 16.0507 13.0035 16.1061 12.9969C16.1615 12.9902 16.215 12.9732 16.2636 12.9468C16.3121 12.9204 16.3547 12.8852 16.389 12.843L16.9106 12.2014C16.9798 12.1163 17.0107 12.0085 16.9967 11.9016C16.9826 11.7947 16.9247 11.6975 16.8357 11.6314ZM11.9557 8.02596L10.9118 7.2546C10.9997 7.01173 11.0463 6.75697 11.0499 6.5C11.0551 6.12378 10.9679 5.75164 10.7953 5.41348C10.6228 5.07532 10.3696 4.78055 10.0563 4.55287C9.74288 4.32518 9.37802 4.17092 8.99097 4.10247C8.60392 4.03403 8.20547 4.0533 7.82762 4.15875C7.9878 4.36622 8.07444 4.61717 8.07492 4.87502C8.07096 4.96082 8.05724 5.04595 8.03401 5.12892L6.07875 3.68446C6.75795 3.14192 7.61478 2.84441 8.49992 2.84379C9.0023 2.84352 9.49981 2.93791 9.96401 3.12156C10.4282 3.3052 10.85 3.57451 11.2052 3.91407C11.5605 4.25364 11.8422 4.6568 12.0343 5.10051C12.2264 5.54422 12.3252 6.01978 12.3249 6.5C12.3249 7.04919 12.1844 7.56106 11.9557 8.02621V8.02596Z" fill="#2196F3"/>
<rect x="0.5" y="0.5" width="16" height="12" stroke="white"/>
</svg>
