<svg width="25" height="17" viewBox="0 0 25 17" fill="none" xmlns="http://www.w3.org/2000/svg">
<path fill-rule="evenodd" clip-rule="evenodd" d="M24.178 7.82107C20.3005 2.9627 16.1926 0.43145 12.2767 0.43145C8.36077 0.43145 4.2529 2.9627 0.375368 7.82107C-0.00854556 8.27016 -0.00854556 8.96421 0.375368 9.41331C4.2529 14.2308 8.36077 16.7621 12.2767 16.7621C16.1926 16.7621 20.3005 14.2308 24.178 9.37248C24.5235 8.92339 24.5235 8.27016 24.178 7.82107ZM12.2767 15.129C8.93665 15.129 5.21269 12.8019 1.75746 8.59677C5.21269 4.39163 8.93665 2.06451 12.2767 2.06451C15.6167 2.06451 19.3407 4.39163 22.7959 8.59677C19.3407 12.8019 15.6167 15.129 12.2767 15.129ZM12.2767 3.69758C9.74287 3.69758 7.66973 5.90222 7.66973 8.59677C7.66973 11.2913 9.74287 13.496 12.2767 13.496C14.8105 13.496 16.8837 11.2913 16.8837 8.59677C16.8837 5.90222 14.8105 3.69758 12.2767 3.69758ZM12.2767 11.8629C10.5875 11.8629 9.20539 10.3931 9.20539 8.59677C9.20539 6.8004 10.5875 5.33064 12.2767 5.33064C13.9659 5.33064 15.348 6.8004 15.348 8.59677C15.348 10.3931 13.9659 11.8629 12.2767 11.8629Z" fill="#2196F3"/>
</svg>
