<svg width="36" height="22" viewBox="0 0 36 22" fill="none" xmlns="http://www.w3.org/2000/svg">
<path d="M2.352 21.224C1.904 21.224 1.54 21.1213 1.26 20.916C0.998667 20.7107 0.84 20.44 0.784 20.104C0.728 19.7493 0.793333 19.3573 0.98 18.928L8.372 2.548C8.61467 2.00667 8.904 1.624 9.24 1.4C9.59467 1.15733 9.996 1.036 10.444 1.036C10.8733 1.036 11.256 1.15733 11.592 1.4C11.9467 1.624 12.2453 2.00667 12.488 2.548L19.908 18.928C20.1133 19.3573 20.188 19.7493 20.132 20.104C20.076 20.4587 19.9173 20.7387 19.656 20.944C19.3947 21.1307 19.0493 21.224 18.62 21.224C18.0973 21.224 17.6867 21.1027 17.388 20.86C17.108 20.5987 16.856 20.2067 16.632 19.684L14.812 15.456L16.324 16.436H4.508L6.02 15.456L4.228 19.684C3.98533 20.2253 3.73333 20.6173 3.472 20.86C3.21067 21.1027 2.83733 21.224 2.352 21.224ZM10.388 5.152L6.468 14.476L5.74 13.58H15.092L14.392 14.476L10.444 5.152H10.388Z" fill="#FFC107"/>
<path d="M27.3319 21.28C25.7826 21.28 24.6159 20.8413 23.8319 19.964C23.0479 19.068 22.6559 17.7613 22.6559 16.044V2.8C22.6559 2.22133 22.8053 1.78267 23.1039 1.484C23.4026 1.18533 23.8319 1.036 24.3919 1.036C24.9519 1.036 25.3813 1.18533 25.6799 1.484C25.9973 1.78267 26.1559 2.22133 26.1559 2.8V15.876C26.1559 16.7347 26.3333 17.3693 26.6879 17.78C27.0613 18.1907 27.5839 18.396 28.2559 18.396C28.4053 18.396 28.5453 18.396 28.6759 18.396C28.8066 18.3773 28.9373 18.3587 29.0679 18.34C29.3293 18.3027 29.5066 18.3773 29.5999 18.564C29.6933 18.732 29.7399 19.0867 29.7399 19.628C29.7399 20.0947 29.6466 20.4587 29.4599 20.72C29.2733 20.9813 28.9653 21.14 28.5359 21.196C28.3493 21.2147 28.1533 21.2333 27.9479 21.252C27.7426 21.2707 27.5373 21.28 27.3319 21.28ZM33.3333 21.196C32.7733 21.196 32.344 21.028 32.0453 20.692C31.7467 20.356 31.5973 19.8893 31.5973 19.292V9.016C31.5973 8.4 31.7467 7.93333 32.0453 7.616C32.344 7.28 32.7733 7.112 33.3333 7.112C33.8933 7.112 34.3227 7.28 34.6213 7.616C34.9387 7.93333 35.0973 8.4 35.0973 9.016V19.292C35.0973 19.8893 34.948 20.356 34.6493 20.692C34.3507 21.028 33.912 21.196 33.3333 21.196ZM33.3333 4.508C32.68 4.508 32.1667 4.34933 31.7933 4.032C31.4387 3.696 31.2613 3.23867 31.2613 2.66C31.2613 2.06267 31.4387 1.60533 31.7933 1.288C32.1667 0.970666 32.68 0.812 33.3333 0.812C34.0053 0.812 34.5187 0.970666 34.8733 1.288C35.228 1.60533 35.4053 2.06267 35.4053 2.66C35.4053 3.23867 35.228 3.696 34.8733 4.032C34.5187 4.34933 34.0053 4.508 33.3333 4.508Z" fill="#2196F3"/>
</svg>
