<svg width="24" height="23" viewBox="0 0 24 23" fill="none" xmlns="http://www.w3.org/2000/svg">
<path d="M23.7784 10.3324L12.4842 0.232744C12.4645 0.212999 12.4447 0.19819 12.4201 0.183381C12.1732 -0.0535603 11.7783 -0.0634328 11.5167 0.168572L0.222507 10.2682C-0.0539247 10.515 -0.0736698 10.9346 0.168208 11.211C0.301488 11.3591 0.48413 11.4332 0.666772 11.4332C0.824733 11.4332 0.982694 11.3789 1.11104 11.2653L3.14479 9.44384V9.79926V15.0712V21.2218C3.14479 22.1449 3.8951 22.9001 4.82312 22.9001C4.83793 22.9001 4.8478 22.9001 4.86261 22.9001C4.87742 22.9001 4.88729 22.9001 4.9021 22.9001H8.38712C9.2559 22.9001 9.96179 22.1943 9.96179 21.3255V15.3378C9.96179 15.2045 10.0704 15.0959 10.2037 15.0959H13.8022C13.9355 15.0959 14.0441 15.2045 14.0441 15.3378V21.3255C14.0441 22.1943 14.75 22.9001 15.6188 22.9001H19.1828C20.1207 22.9001 20.8611 21.9771 20.8611 20.7973V15.3081V13.6298V9.50801L22.8948 11.3295C23.0232 11.443 23.1811 11.4973 23.3391 11.4973C23.5218 11.4973 23.7044 11.4233 23.8377 11.2752C24.0746 10.9988 24.0499 10.5792 23.7784 10.3324ZM19.5234 13.6249V15.3032V20.7874C19.5234 21.2662 19.2864 21.5575 19.1778 21.5575H15.6138C15.4805 21.5575 15.372 21.4489 15.372 21.3156V15.3378C15.372 14.469 14.6661 13.7631 13.7973 13.7631H10.1987C9.32994 13.7631 8.62406 14.469 8.62406 15.3378V21.3255C8.62406 21.4587 8.51546 21.5673 8.38218 21.5673H4.89716C4.88236 21.5673 4.87248 21.5673 4.85767 21.5673C4.84287 21.5673 4.83299 21.5673 4.81818 21.5673C4.63061 21.5673 4.47264 21.4143 4.47264 21.2218V15.0663V9.79432V8.24926L11.9659 1.55567L19.5234 8.31343V13.6249Z" fill="white"/>
</svg>
