<svg width="48" height="49" viewBox="0 0 48 49" fill="none" xmlns="http://www.w3.org/2000/svg">
<path d="M34.017 42.4189L14.017 42.4379C9.61699 42.4419 6.01399 38.8459 6.00899 34.4459L5.98999 14.4459C5.98599 10.0459 9.58199 6.44295 13.982 6.43795L33.982 6.41895C38.382 6.41495 41.985 10.0109 41.99 14.4109L42.009 34.4109C42.014 38.8119 38.417 42.4149 34.017 42.4189Z" fill="url(#paint0_radial_107_3180)"/>
<path d="M34.017 42.4189L14.017 42.4379C9.61699 42.4419 6.01399 38.8459 6.00899 34.4459L5.98999 14.4459C5.98599 10.0459 9.58199 6.44295 13.982 6.43795L33.982 6.41895C38.382 6.41495 41.985 10.0109 41.99 14.4109L42.009 34.4109C42.014 38.8119 38.417 42.4149 34.017 42.4189Z" fill="url(#paint1_radial_107_3180)"/>
<path d="M24 31.4287C20.141 31.4287 17 28.2887 17 24.4287C17 20.5687 20.141 17.4287 24 17.4287C27.859 17.4287 31 20.5687 31 24.4287C31 28.2887 27.859 31.4287 24 31.4287ZM24 19.4287C21.243 19.4287 19 21.6717 19 24.4287C19 27.1857 21.243 29.4287 24 29.4287C26.757 29.4287 29 27.1857 29 24.4287C29 21.6717 26.757 19.4287 24 19.4287Z" fill="white"/>
<path d="M31.5 18.4287C32.3284 18.4287 33 17.7571 33 16.9287C33 16.1003 32.3284 15.4287 31.5 15.4287C30.6716 15.4287 30 16.1003 30 16.9287C30 17.7571 30.6716 18.4287 31.5 18.4287Z" fill="white"/>
<path d="M30 37.4287H18C14.141 37.4287 11 34.2887 11 30.4287V18.4287C11 14.5687 14.141 11.4287 18 11.4287H30C33.859 11.4287 37 14.5687 37 18.4287V30.4287C37 34.2887 33.859 37.4287 30 37.4287ZM18 13.4287C15.243 13.4287 13 15.6717 13 18.4287V30.4287C13 33.1857 15.243 35.4287 18 35.4287H30C32.757 35.4287 35 33.1857 35 30.4287V18.4287C35 15.6717 32.757 13.4287 30 13.4287H18Z" fill="white"/>
<defs>
<radialGradient id="paint0_radial_107_3180" cx="0" cy="0" r="1" gradientUnits="userSpaceOnUse" gradientTransform="translate(19.38 42.4639) scale(44.899 44.899)">
<stop stop-color="#FFDD55"/>
<stop offset="0.328" stop-color="#FF543F"/>
<stop offset="0.348" stop-color="#FC5245"/>
<stop offset="0.504" stop-color="#E64771"/>
<stop offset="0.643" stop-color="#D53E91"/>
<stop offset="0.761" stop-color="#CC39A4"/>
<stop offset="0.841" stop-color="#C837AB"/>
</radialGradient>
<radialGradient id="paint1_radial_107_3180" cx="0" cy="0" r="1" gradientUnits="userSpaceOnUse" gradientTransform="translate(11.786 5.96925) scale(29.813 19.8644)">
<stop stop-color="#4168C9"/>
<stop offset="0.999" stop-color="#4168C9" stop-opacity="0"/>
</radialGradient>
</defs>
</svg>
