<svg width="105" height="98" viewBox="0 0 105 98" fill="none" xmlns="http://www.w3.org/2000/svg">
<path d="M52.5 98C45.3906 98 38.5889 96.708 32.0947 94.124C25.6006 91.54 20.0122 88.0628 15.3296 83.6924C10.647 79.3219 6.92139 74.1061 4.15283 68.0449C1.38428 61.9837 0 55.6354 0 49C0 42.3646 1.38428 36.0163 4.15283 29.9551C6.92139 23.8939 10.647 18.6781 15.3296 14.3076C20.0122 9.93717 25.6006 6.45996 32.0947 3.87598C38.5889 1.29199 45.3906 0 52.5 0C59.6094 0 66.4111 1.29199 72.9053 3.87598C79.3994 6.45996 84.9878 9.93717 89.6704 14.3076C94.353 18.6781 98.0786 23.8939 100.847 29.9551C103.616 36.0163 105 42.3646 105 49C105 55.6354 103.616 61.9837 100.847 68.0449C98.0786 74.1061 94.353 79.3219 89.6704 83.6924C84.9878 88.0628 79.3994 91.54 72.9053 94.124C66.4111 96.708 59.6094 98 52.5 98ZM19.9951 18.6621L52.5 49V6.125C46.2793 6.125 40.3662 7.22559 34.7607 9.42676C29.1553 11.6279 24.2334 14.7064 19.9951 18.6621Z" fill="#2196F3"/>
</svg>
