<svg width="110" height="108" viewBox="0 0 110 108" fill="none" xmlns="http://www.w3.org/2000/svg">
<g clip-path="url(#clip0_530_324)">
<g filter="url(#filter0_d_530_324)">
<path d="M45.7674 52.3975C33.6617 44.2073 53.7205 76.4523 61.2515 81.4628C89.7586 100.429 103.678 64.3655 87.2929 43.8488C55.2691 0.369751 58.6472 0.797181 55.2691 0.369751C36.4769 1.65204 126.003 106.681 45.7674 52.3975Z" fill="#2196F3"/>
</g>
<g filter="url(#filter1_d_530_324)">
<path d="M64.2326 52.3975C76.3386 44.2073 56.2795 76.4523 48.7485 81.4628C20.2414 100.429 6.3224 64.3655 22.7072 43.8488C54.7309 0.369751 51.3528 0.797181 54.7309 0.369751C73.5229 1.65204 -16.0029 106.681 64.2326 52.3975Z" fill="#FFC107"/>
</g>
<path d="M1.72532 106.864C1.42817 106.864 1.18674 106.782 1.00103 106.617C0.827694 106.452 0.722458 106.235 0.685312 105.965C0.648169 105.681 0.691503 105.366 0.815316 105.021L5.71817 91.8746C5.87912 91.4398 6.07103 91.1329 6.29389 90.9532C6.52912 90.7587 6.79532 90.661 7.09246 90.661C7.37721 90.661 7.63099 90.7587 7.85385 90.9532C8.08914 91.1329 8.28721 91.4398 8.44814 91.8746L13.3696 105.021C13.5058 105.366 13.5553 105.681 13.5181 105.965C13.481 106.249 13.3758 106.474 13.2024 106.639C13.0291 106.789 12.8001 106.864 12.5153 106.864C12.1686 106.864 11.8963 106.766 11.6981 106.572C11.5124 106.362 11.3453 106.047 11.1967 105.628L9.98957 102.235L10.9924 103.021H3.15532L4.15817 102.235L2.9696 105.628C2.80864 106.063 2.6415 106.377 2.46817 106.572C2.29484 106.766 2.04722 106.864 1.72532 106.864ZM7.05532 93.9645L4.45532 101.448L3.97246 100.729H10.1753L9.71099 101.448L7.09246 93.9645H7.05532Z" fill="#FFC107"/>
<path d="M18.2937 106.909C17.266 106.909 16.4922 106.557 15.9722 105.853C15.4522 105.134 15.1922 104.085 15.1922 102.707V92.0768C15.1922 91.6126 15.2913 91.26 15.4894 91.0206C15.6874 90.7811 15.9722 90.661 16.3437 90.661C16.7151 90.661 16.9999 90.7811 17.1979 91.0206C17.4084 91.26 17.5137 91.6126 17.5137 92.0768V102.572C17.5137 103.261 17.6313 103.771 17.8665 104.1C18.1142 104.429 18.4608 104.594 18.9065 104.594C19.0056 104.594 19.0984 104.594 19.1851 104.594C19.2717 104.58 19.3584 104.564 19.4451 104.549C19.6184 104.519 19.736 104.58 19.7979 104.729C19.8599 104.864 19.8908 105.148 19.8908 105.583C19.8908 105.957 19.8289 106.249 19.7051 106.459C19.5813 106.67 19.377 106.797 19.0922 106.842C18.9684 106.856 18.8384 106.872 18.7022 106.886C18.566 106.901 18.4299 106.909 18.2937 106.909ZM22.2742 106.842C21.9027 106.842 21.618 106.707 21.4199 106.437C21.2218 106.167 21.1227 105.793 21.1227 105.313V97.0658C21.1227 96.5714 21.2218 96.1971 21.4199 95.9421C21.618 95.6725 21.9027 95.5376 22.2742 95.5376C22.6456 95.5376 22.9304 95.6725 23.1284 95.9421C23.3389 96.1971 23.4442 96.5714 23.4442 97.0658V105.313C23.4442 105.793 23.3452 106.167 23.147 106.437C22.9489 106.707 22.658 106.842 22.2742 106.842ZM22.2742 93.4476C21.8409 93.4476 21.5004 93.3206 21.2527 93.0656C21.0175 92.7959 20.8999 92.4286 20.8999 91.9644C20.8999 91.4847 21.0175 91.1182 21.2527 90.8632C21.5004 90.6083 21.8409 90.4812 22.2742 90.4812C22.7199 90.4812 23.0604 90.6083 23.2956 90.8632C23.5309 91.1182 23.6484 91.4847 23.6484 91.9644C23.6484 92.4286 23.5309 92.7959 23.2956 93.0656C23.0604 93.3206 22.7199 93.4476 22.2742 93.4476ZM27.0449 106.864C26.6734 106.864 26.3887 106.744 26.1906 106.504C25.9925 106.249 25.8934 105.89 25.8934 105.426V96.931C25.8934 96.4668 25.9925 96.1141 26.1906 95.8747C26.3887 95.6353 26.6672 95.5152 27.0263 95.5152C27.3854 95.5152 27.6639 95.6353 27.862 95.8747C28.0601 96.1141 28.1592 96.4668 28.1592 96.931V98.5715L27.9549 97.8973C28.2025 97.1479 28.5863 96.5567 29.1063 96.1219C29.6263 95.6872 30.2454 95.4702 30.9634 95.4702C31.6939 95.4702 32.2944 95.6802 32.7649 96.0994C33.2354 96.5187 33.5634 97.1635 33.7492 98.0321H33.4892C33.7368 97.2378 34.1454 96.6163 34.7149 96.1669C35.2844 95.7027 35.9406 95.4702 36.6834 95.4702C37.3768 95.4702 37.9463 95.6353 38.392 95.9646C38.8501 96.2939 39.1906 96.7961 39.4134 97.4703C39.6363 98.1298 39.7477 98.9682 39.7477 99.9873V105.426C39.7477 105.89 39.6425 106.249 39.432 106.504C39.2339 106.744 38.9492 106.864 38.5777 106.864C38.2063 106.864 37.9215 106.744 37.7234 106.504C37.5254 106.249 37.4263 105.89 37.4263 105.426V100.1C37.4263 99.2604 37.3087 98.6467 37.0734 98.2569C36.8506 97.867 36.4668 97.6726 35.922 97.6726C35.3154 97.6726 34.8387 97.9345 34.492 98.4591C34.1454 98.9682 33.972 99.6804 33.972 100.594V105.426C33.972 105.89 33.8729 106.249 33.6749 106.504C33.4768 106.744 33.192 106.864 32.8206 106.864C32.4492 106.864 32.1582 106.744 31.9477 106.504C31.7497 106.249 31.6506 105.89 31.6506 105.426V100.1C31.6506 99.2604 31.5329 98.6467 31.2977 98.2569C31.0749 97.867 30.6972 97.6726 30.1649 97.6726C29.5582 97.6726 29.0815 97.9345 28.7349 98.4591C28.3882 98.9682 28.2149 99.6804 28.2149 100.594V105.426C28.2149 106.384 27.8249 106.864 27.0449 106.864ZM46.6183 106.909C45.5907 106.909 44.7054 106.676 43.9626 106.212C43.2197 105.748 42.644 105.089 42.2354 104.235C41.8392 103.381 41.6412 102.369 41.6412 101.201C41.6412 100.062 41.833 99.0659 42.2169 98.2119C42.613 97.3579 43.1516 96.6915 43.8326 96.2118C44.5259 95.7174 45.3121 95.4702 46.1912 95.4702C46.8349 95.4702 47.4107 95.5973 47.9183 95.8522C48.4383 96.1072 48.8778 96.4737 49.2369 96.9534C49.6083 97.4331 49.8869 98.0174 50.0726 98.7063C50.2707 99.3805 50.3697 100.145 50.3697 100.999C50.3697 101.268 50.2892 101.478 50.1283 101.628C49.9797 101.763 49.763 101.83 49.4783 101.83H43.5169V100.212H48.7354L48.4383 100.549C48.4383 99.8602 48.3516 99.2828 48.1783 98.8187C48.0173 98.3545 47.7759 98.0019 47.454 97.7625C47.1444 97.5075 46.7544 97.3804 46.284 97.3804C45.764 97.3804 45.3183 97.5299 44.9469 97.8299C44.5878 98.1142 44.3092 98.5265 44.1112 99.0659C43.9254 99.5905 43.8326 100.22 43.8326 100.954V101.111C43.8326 102.339 44.0678 103.261 44.5383 103.875C45.0212 104.474 45.7269 104.774 46.6554 104.774C46.9773 104.774 47.3364 104.729 47.7326 104.639C48.1412 104.535 48.5249 104.362 48.884 104.122C49.144 103.943 49.373 103.867 49.5712 103.898C49.7692 103.912 49.924 103.995 50.0354 104.145C50.1592 104.294 50.2335 104.482 50.2583 104.707C50.283 104.917 50.2459 105.134 50.1469 105.358C50.0602 105.583 49.9054 105.778 49.6826 105.943C49.2492 106.272 48.7478 106.519 48.1783 106.684C47.6212 106.834 47.1012 106.909 46.6183 106.909ZM53.3596 106.864C52.9882 106.864 52.7034 106.744 52.5053 106.504C52.3072 106.249 52.2082 105.89 52.2082 105.426V96.931C52.2082 96.4668 52.3072 96.1141 52.5053 95.8747C52.7034 95.6353 52.9819 95.5152 53.341 95.5152C53.7 95.5152 53.9786 95.6353 54.1767 95.8747C54.3748 96.1141 54.4739 96.4668 54.4739 96.931V98.4591L54.2696 97.8973C54.5419 97.103 54.9629 96.504 55.5324 96.0994C56.1143 95.6802 56.7705 95.4702 57.501 95.4702C58.2314 95.4702 58.8319 95.6353 59.3024 95.9646C59.7729 96.2939 60.1257 96.7961 60.361 97.4703C60.5962 98.1298 60.7139 98.9682 60.7139 99.9873V105.426C60.7139 105.89 60.6148 106.249 60.4167 106.504C60.2186 106.744 59.9339 106.864 59.5624 106.864C59.191 106.864 58.9 106.744 58.6896 106.504C58.4914 106.249 58.3924 105.89 58.3924 105.426V100.122C58.3924 99.2681 58.2562 98.6467 57.9839 98.2569C57.7239 97.867 57.3153 97.6726 56.7582 97.6726C56.0772 97.6726 55.5324 97.9345 55.1239 98.4591C54.7277 98.9682 54.5296 99.6502 54.5296 100.504V105.426C54.5296 106.384 54.1396 106.864 53.3596 106.864ZM67.2317 106.909C66.4269 106.909 65.7522 106.744 65.2074 106.415C64.675 106.085 64.2789 105.606 64.0189 104.976C63.7589 104.332 63.6289 103.538 63.6289 102.594V97.8074H62.6632C62.366 97.8074 62.1369 97.7175 61.976 97.5377C61.815 97.3432 61.7346 97.0805 61.7346 96.7512C61.7346 96.4063 61.815 96.1444 61.976 95.9646C62.1369 95.7848 62.366 95.6949 62.6632 95.6949H63.6289V93.6499C63.6289 93.1857 63.7279 92.8331 63.926 92.5937C64.1364 92.3542 64.4274 92.2341 64.7989 92.2341C65.1703 92.2341 65.455 92.3542 65.6532 92.5937C65.8512 92.8331 65.9503 93.1857 65.9503 93.6499V95.6949H67.9189C68.216 95.6949 68.445 95.7848 68.606 95.9646C68.7669 96.1444 68.8474 96.4063 68.8474 96.7512C68.8474 97.0805 68.7669 97.3432 68.606 97.5377C68.445 97.7175 68.216 97.8074 67.9189 97.8074H65.9503V102.437C65.9503 103.156 66.0803 103.695 66.3403 104.055C66.6003 104.414 67.0212 104.594 67.6032 104.594C67.8136 104.594 67.9993 104.572 68.1603 104.527C68.3212 104.482 68.4636 104.452 68.5874 104.437C68.736 104.422 68.8598 104.482 68.9589 104.617C69.0579 104.737 69.1074 104.991 69.1074 105.381C69.1074 105.681 69.0641 105.95 68.9774 106.19C68.9032 106.415 68.7607 106.572 68.5503 106.662C68.3893 106.721 68.1789 106.774 67.9189 106.819C67.6589 106.879 67.4298 106.909 67.2317 106.909ZM73.1893 106.909C72.5329 106.909 71.945 106.759 71.4249 106.459C70.9173 106.145 70.5149 105.726 70.2178 105.201C69.933 104.676 69.7907 104.085 69.7907 103.426C69.7907 102.617 69.9639 101.98 70.3107 101.515C70.6573 101.036 71.2207 100.692 72.0007 100.482C72.7807 100.272 73.8272 100.167 75.1393 100.167H76.0679V101.785H75.1579C74.39 101.785 73.7772 101.83 73.3193 101.92C72.8614 102.01 72.5329 102.167 72.335 102.392C72.1493 102.602 72.0564 102.901 72.0564 103.291C72.0564 103.785 72.1986 104.19 72.4836 104.504C72.7686 104.819 73.1643 104.976 73.6722 104.976C74.0807 104.976 74.44 104.864 74.7493 104.639C75.0714 104.4 75.325 104.077 75.5107 103.673C75.6964 103.268 75.7893 102.804 75.7893 102.28V99.6951C75.7893 98.9457 75.6529 98.4064 75.3807 98.0771C75.1086 97.7478 74.65 97.5827 74.0064 97.5827C73.6472 97.5827 73.2572 97.6354 72.8364 97.74C72.4279 97.8446 71.9943 98.0243 71.5364 98.2793C71.3011 98.4142 71.0907 98.4513 70.9049 98.3917C70.7316 98.3321 70.5954 98.2119 70.4964 98.0321C70.3973 97.8376 70.3478 97.6276 70.3478 97.4029C70.3478 97.1782 70.3973 96.9612 70.4964 96.7512C70.5954 96.5264 70.7625 96.3613 70.9978 96.2568C71.5672 95.9724 72.1122 95.7701 72.6322 95.65C73.1643 95.5298 73.6472 95.4702 74.0807 95.4702C74.9722 95.4702 75.7029 95.6353 76.2722 95.9646C76.8543 96.2939 77.2872 96.7961 77.5722 97.4703C77.8572 98.1298 77.9993 98.9838 77.9993 100.032V105.426C77.9993 105.89 77.9064 106.249 77.7207 106.504C77.535 106.744 77.2686 106.864 76.9222 106.864C76.5757 106.864 76.3029 106.744 76.105 106.504C75.9193 106.249 75.8264 105.89 75.8264 105.426V104.347H75.975C75.8886 104.872 75.715 105.328 75.455 105.718C75.2072 106.092 74.8914 106.384 74.5079 106.594C74.1243 106.804 73.6843 106.909 73.1893 106.909ZM81.5443 106.864C81.16 106.864 80.8629 106.744 80.6529 106.504C80.4543 106.249 80.3557 105.89 80.3557 105.426V96.931C80.3557 96.4668 80.4543 96.1141 80.6529 95.8747C80.8507 95.6353 81.1293 95.5152 81.4886 95.5152C81.8472 95.5152 82.1257 95.6353 82.3243 95.8747C82.5222 96.1141 82.6214 96.4668 82.6214 96.931V98.3467H82.4357C82.6086 97.4478 82.9493 96.7659 83.4572 96.3017C83.9643 95.8376 84.6393 95.5601 85.4815 95.4702C85.7415 95.44 85.9457 95.5229 86.0943 95.7174C86.255 95.8972 86.3479 96.1816 86.3729 96.5714C86.3972 96.9456 86.3229 97.2533 86.15 97.4928C85.9886 97.7175 85.7414 97.8523 85.4072 97.8973L84.9986 97.9422C84.2429 98.0321 83.6736 98.3165 83.29 98.7962C82.9057 99.2604 82.7143 99.9199 82.7143 100.774V105.426C82.7143 105.89 82.615 106.249 82.4172 106.504C82.2186 106.744 81.9279 106.864 81.5443 106.864ZM88.7793 106.842C88.4079 106.842 88.1236 106.707 87.925 106.437C87.7272 106.167 87.6279 105.793 87.6279 105.313V97.0658C87.6279 96.5714 87.7272 96.1971 87.925 95.9421C88.1236 95.6725 88.4079 95.5376 88.7793 95.5376C89.1507 95.5376 89.4357 95.6725 89.6336 95.9421C89.8443 96.1971 89.9493 96.5714 89.9493 97.0658V105.313C89.9493 105.793 89.8507 106.167 89.6522 106.437C89.4543 106.707 89.1636 106.842 88.7793 106.842ZM88.7793 93.4476C88.3464 93.4476 88.0057 93.3206 87.7579 93.0656C87.5229 92.7959 87.405 92.4286 87.405 91.9644C87.405 91.4847 87.5229 91.1182 87.7579 90.8632C88.0057 90.6083 88.3464 90.4812 88.7793 90.4812C89.225 90.4812 89.5657 90.6083 89.8007 90.8632C90.0364 91.1182 90.1536 91.4847 90.1536 91.9644C90.1536 92.4286 90.0364 92.7959 89.8007 93.0656C89.5657 93.3206 89.225 93.4476 88.7793 93.4476ZM92.9186 106.684C92.6836 106.684 92.4857 106.617 92.3243 106.482C92.1757 106.332 92.0772 106.145 92.0272 105.92C91.9779 105.695 91.9779 105.456 92.0272 105.201C92.0893 104.931 92.2072 104.676 92.38 104.437L97.19 97.1332V97.8074H92.8072C92.5229 97.8074 92.3 97.7175 92.1386 97.5377C91.99 97.3432 91.9157 97.0805 91.9157 96.7512C91.9157 96.4063 91.99 96.1444 92.1386 95.9646C92.3 95.7848 92.5229 95.6949 92.8072 95.6949H98.3043C98.5772 95.6949 98.8 95.7701 98.9729 95.9197C99.1464 96.0545 99.2579 96.2343 99.3072 96.459C99.3693 96.6837 99.3757 96.9232 99.3257 97.1782C99.2764 97.4331 99.165 97.6726 98.9914 97.8973L94.0886 105.313V104.572H98.7314C99.3257 104.572 99.6229 104.924 99.6229 105.628C99.6229 105.957 99.5429 106.22 99.3814 106.415C99.2329 106.594 99.0164 106.684 98.7314 106.684H92.9186ZM105.452 106.909C104.424 106.909 103.539 106.676 102.796 106.212C102.054 105.748 101.478 105.089 101.069 104.235C100.673 103.381 100.475 102.369 100.475 101.201C100.475 100.062 100.666 99.0659 101.051 98.2119C101.446 97.3579 101.985 96.6915 102.666 96.2118C103.359 95.7174 104.146 95.4702 105.025 95.4702C105.669 95.4702 106.244 95.5973 106.752 95.8522C107.272 96.1072 107.711 96.4737 108.071 96.9534C108.442 97.4331 108.721 98.0174 108.906 98.7063C109.104 99.3805 109.204 100.145 109.204 100.999C109.204 101.268 109.123 101.478 108.962 101.628C108.814 101.763 108.596 101.83 108.312 101.83H102.351V100.212H107.569L107.272 100.549C107.272 99.8602 107.185 99.2828 107.012 98.8187C106.851 98.3545 106.609 98.0019 106.288 97.7625C105.978 97.5075 105.588 97.3804 105.118 97.3804C104.598 97.3804 104.152 97.5299 103.781 97.8299C103.421 98.1142 103.143 98.5265 102.945 99.0659C102.759 99.5905 102.666 100.22 102.666 100.954V101.111C102.666 102.339 102.901 103.261 103.372 103.875C103.855 104.474 104.561 104.774 105.489 104.774C105.811 104.774 106.17 104.729 106.566 104.639C106.975 104.535 107.359 104.362 107.718 104.122C107.978 103.943 108.206 103.867 108.405 103.898C108.603 103.912 108.758 103.995 108.869 104.145C108.993 104.294 109.067 104.482 109.092 104.707C109.116 104.917 109.079 105.134 108.981 105.358C108.894 105.583 108.739 105.778 108.516 105.943C108.083 106.272 107.581 106.519 107.012 106.684C106.455 106.834 105.935 106.909 105.452 106.909Z" fill="#2196F3"/>
</g>
<defs>
<filter id="filter0_d_530_324" x="27.9716" y="-9.63025" width="80.3143" height="114.435" filterUnits="userSpaceOnUse" color-interpolation-filters="sRGB">
<feFlood flood-opacity="0" result="BackgroundImageFix"/>
<feColorMatrix in="SourceAlpha" type="matrix" values="0 0 0 0 0 0 0 0 0 0 0 0 0 0 0 0 0 0 127 0" result="hardAlpha"/>
<feOffset dy="4"/>
<feGaussianBlur stdDeviation="7"/>
<feComposite in2="hardAlpha" operator="out"/>
<feColorMatrix type="matrix" values="0 0 0 0 0 0 0 0 0 0 0 0 0 0 0 0 0 0 0.1 0"/>
<feBlend mode="normal" in2="BackgroundImageFix" result="effect1_dropShadow_530_324"/>
<feBlend mode="normal" in="SourceGraphic" in2="effect1_dropShadow_530_324" result="shape"/>
</filter>
<filter id="filter1_d_530_324" x="1.71429" y="-9.63025" width="80.3142" height="114.435" filterUnits="userSpaceOnUse" color-interpolation-filters="sRGB">
<feFlood flood-opacity="0" result="BackgroundImageFix"/>
<feColorMatrix in="SourceAlpha" type="matrix" values="0 0 0 0 0 0 0 0 0 0 0 0 0 0 0 0 0 0 127 0" result="hardAlpha"/>
<feOffset dy="4"/>
<feGaussianBlur stdDeviation="7"/>
<feComposite in2="hardAlpha" operator="out"/>
<feColorMatrix type="matrix" values="0 0 0 0 0 0 0 0 0 0 0 0 0 0 0 0 0 0 0.1 0"/>
<feBlend mode="normal" in2="BackgroundImageFix" result="effect1_dropShadow_530_324"/>
<feBlend mode="normal" in="SourceGraphic" in2="effect1_dropShadow_530_324" result="shape"/>
</filter>
<clipPath id="clip0_530_324">
<rect width="110" height="107.179" fill="white" transform="translate(0 0.369751)"/>
</clipPath>
</defs>
</svg>
