<svg width="267" height="120" viewBox="0 0 267 120" fill="none" xmlns="http://www.w3.org/2000/svg">
<g clip-path="url(#clip0_107_1564)">
<rect x="170.448" y="13.0645" width="68.3375" height="72.0346" rx="5" transform="rotate(90 170.448 13.0645)" fill="#2196F3"/>
<path d="M129.929 66.4532C129.929 62.1821 128.128 58.7652 125.426 56.2025L133.08 42.535C134.431 42.9622 135.331 42.9622 136.682 42.9622H138.483L144.336 55.3483C141.184 57.911 138.933 61.755 138.933 66.4532C138.933 74.5682 146.136 81.402 154.691 81.402C163.245 81.402 170.448 74.5682 170.448 66.4532C170.448 58.3381 163.245 51.5043 154.691 51.5043L152.89 51.5043L147.037 39.1182C150.188 36.5555 152.439 32.7115 152.439 28.0133C152.439 19.8983 145.236 13.0645 136.682 13.0645C128.128 13.0645 120.924 19.8983 120.924 28.0133C120.924 32.2844 122.725 35.7013 125.426 38.264L117.773 51.5043H114.171C105.617 51.5043 98.4135 58.3381 98.4135 66.4532C98.4135 74.5682 105.617 81.402 114.171 81.402C122.725 81.402 129.929 74.5682 129.929 66.4532ZM165.946 66.4532C165.946 72.4327 160.994 77.1309 154.691 77.1309C148.387 77.1309 143.435 72.4327 143.435 66.4532C143.435 60.4736 148.387 55.7754 154.691 55.7754C160.994 55.7754 165.946 60.4736 165.946 66.4532ZM125.426 28.0133C125.426 22.0338 130.379 17.3356 136.682 17.3356C142.985 17.3356 147.937 22.0338 147.937 28.0133C147.937 33.9929 142.985 38.6911 136.682 38.6911C130.379 38.6911 125.426 33.9929 125.426 28.0133ZM102.916 66.4532C102.916 60.4736 107.868 55.7754 114.171 55.7754C120.474 55.7754 125.426 60.4736 125.426 66.4532C125.426 72.4327 120.474 77.1309 114.171 77.1309C107.868 77.1309 102.916 72.4327 102.916 66.4532Z" fill="#FFC107"/>
<path d="M129.929 66.4532C129.929 62.1821 128.128 58.7652 125.426 56.2025L133.08 42.535C134.431 42.9622 135.331 42.9622 136.682 42.9622H138.483L144.336 55.3483C141.184 57.911 138.933 61.755 138.933 66.4532C138.933 74.5682 146.136 81.402 154.691 81.402C163.245 81.402 170.448 74.5682 170.448 66.4532C170.448 58.3381 163.245 51.5043 154.691 51.5043L152.89 51.5043L147.037 39.1182C150.188 36.5555 152.439 32.7115 152.439 28.0133C152.439 19.8983 145.236 13.0645 136.682 13.0645C128.128 13.0645 120.924 19.8983 120.924 28.0133C120.924 32.2844 122.725 35.7013 125.426 38.264L117.773 51.5043H114.171C105.617 51.5043 98.4135 58.3381 98.4135 66.4532C98.4135 74.5682 105.617 81.402 114.171 81.402C122.725 81.402 129.929 74.5682 129.929 66.4532ZM165.946 66.4532C165.946 72.4327 160.994 77.1309 154.691 77.1309C148.387 77.1309 143.435 72.4327 143.435 66.4532C143.435 60.4736 148.387 55.7754 154.691 55.7754C160.994 55.7754 165.946 60.4736 165.946 66.4532ZM125.426 28.0133C125.426 22.0338 130.379 17.3356 136.682 17.3356C142.985 17.3356 147.937 22.0338 147.937 28.0133C147.937 33.9929 142.985 38.6911 136.682 38.6911C130.379 38.6911 125.426 33.9929 125.426 28.0133ZM102.916 66.4532C102.916 60.4736 107.868 55.7754 114.171 55.7754C120.474 55.7754 125.426 60.4736 125.426 66.4532C125.426 72.4327 120.474 77.1309 114.171 77.1309C107.868 77.1309 102.916 72.4327 102.916 66.4532Z" stroke="#2196F3"/>
<g clip-path="url(#clip1_107_1564)">
<path d="M159.325 59.5824C159.43 59.4757 159.606 59.4688 159.719 59.5675C159.833 59.6661 159.84 59.8313 159.735 59.938L157.449 62.2624L157.445 62.267C157.166 62.5848 156.974 62.8785 156.888 63.147C156.813 63.3845 156.824 63.6002 156.936 63.7884C156.996 63.8893 156.976 64.0132 156.897 64.0947L155.811 65.1984C155.705 65.0894 155.621 65.001 155.565 64.9437C155.539 64.9116 155.51 64.8806 155.479 64.8507L155.477 64.853C155.462 64.8381 155.446 64.8244 155.43 64.8106L156.358 63.8664C156.25 63.5933 156.251 63.303 156.351 62.9944C156.459 62.6594 156.687 62.3026 157.015 61.9309C157.023 61.9217 157.029 61.9125 157.037 61.9045L159.322 59.5801L159.325 59.5824ZM154.414 65.8087C154.311 65.7009 154.321 65.5345 154.436 65.4382C154.551 65.3418 154.728 65.351 154.831 65.4588C155.98 66.6681 159.533 70.2465 160.517 71.5842C161.815 73.3109 159.805 73.8547 159.138 73.226C157.472 71.7127 153.935 67.8544 152.381 66.2183C151.821 66.4409 151.278 66.4753 150.732 66.3285C150.144 66.1713 149.569 65.803 148.985 65.2374L148.978 65.2305C148.534 64.7899 148.186 64.3551 147.934 63.9249C147.676 63.482 147.519 63.0438 147.463 62.6089C147.403 62.1408 147.449 61.7049 147.583 61.3182C147.741 60.8639 148.021 60.4796 148.387 60.1939C148.756 59.9071 149.209 59.7212 149.715 59.6638C150.135 59.6168 150.593 59.6569 151.067 59.8026C151.722 60.0034 152.487 60.5025 153.121 61.1427C153.588 61.6142 153.989 62.1661 154.227 62.734C154.475 63.326 154.551 63.9386 154.352 64.5123C154.235 64.8519 154.022 65.1708 153.692 65.4588C153.579 65.5575 153.403 65.5506 153.298 65.445C153.193 65.3383 153.2 65.1731 153.312 65.0745C153.568 64.8507 153.731 64.6064 153.821 64.3482C153.974 63.9042 153.91 63.412 153.707 62.9279C153.494 62.4208 153.134 61.9251 152.712 61.4995C152.14 60.9236 151.462 60.4773 150.891 60.3017C150.499 60.1824 150.124 60.148 149.781 60.187C149.382 60.2329 149.026 60.3763 148.741 60.6C148.455 60.8237 148.237 61.1255 148.111 61.4846C148.002 61.7978 147.964 62.158 148.015 62.547C148.062 62.9141 148.198 63.2893 148.42 63.6725C148.653 64.066 148.973 64.4641 149.385 64.8714L149.387 64.8748C149.903 65.3739 150.397 65.6952 150.887 65.826C151.35 65.9499 151.821 65.9017 152.313 65.6711C152.426 65.6103 152.571 65.6309 152.66 65.725C154.177 67.3209 157.867 71.3376 159.501 72.8256C160.21 73.0975 160.604 72.7625 160.264 72.1716C159.735 71.2492 155.192 66.6302 154.414 65.8087ZM152.941 68.116L149.38 71.7357C149.373 71.7426 149.366 71.7494 149.358 71.7563C148.838 72.2841 149.759 73.0528 150.33 72.5388L153.789 69.0223L154.16 69.4181L150.728 72.9071C150.721 72.9151 150.714 72.922 150.704 72.93C150.499 73.0918 150.292 73.1973 150.083 73.2409C149.868 73.2868 149.657 73.2662 149.454 73.1767C149.42 73.1641 149.388 73.148 149.36 73.1239L148.868 72.696C148.861 72.6891 148.854 72.6833 148.846 72.6753C148.656 72.4688 148.565 72.2485 148.59 72.0156C148.613 71.7953 148.738 71.5808 148.973 71.3743L152.569 67.719L152.941 68.116ZM156.673 66.0898L156.885 65.8753C156.99 65.7686 157.167 65.7617 157.279 65.8604C157.392 65.959 157.4 66.1242 157.295 66.2309L157.051 66.4788L156.673 66.0898ZM160.193 60.3499C160.298 60.2432 160.474 60.2363 160.588 60.335C160.701 60.4337 160.709 60.5989 160.604 60.7056L158.599 62.7443C158.494 62.851 158.319 62.8579 158.205 62.7592C158.091 62.6606 158.084 62.4954 158.189 62.3887L160.193 60.3499ZM161.06 61.1037C161.165 60.997 161.341 60.9901 161.455 61.0888C161.568 61.1874 161.576 61.3526 161.471 61.4593L159.468 63.4969C159.363 63.6036 159.187 63.6105 159.073 63.5119C158.96 63.4132 158.952 63.248 159.057 63.1413L161.06 61.1037ZM161.959 61.8873C162.064 61.7806 162.24 61.7737 162.354 61.8724C162.467 61.971 162.475 62.1374 162.37 62.2429L160.083 64.5685C160.075 64.5765 160.066 64.5834 160.058 64.5915C159.537 65.0619 159.04 65.3338 158.565 65.4106C158.05 65.4944 157.577 65.3567 157.144 65.001C157.028 64.9058 157.017 64.7395 157.117 64.6316C157.218 64.5226 157.395 64.5123 157.51 64.6064C157.809 64.8519 158.129 64.9483 158.468 64.8921C158.831 64.8335 159.232 64.6075 159.669 64.2117L159.672 64.2094L161.957 61.8861L161.959 61.8873Z" fill="white"/>
</g>
<g clip-path="url(#clip2_107_1564)">
<path d="M117.673 74.4692H110.169C110.09 74.4692 110.015 74.4415 109.957 74.3917C109.899 74.3418 109.863 74.2735 109.857 74.2004L109.253 66.8799C108.01 66.7453 107.043 65.7587 107.043 64.5652C107.043 63.278 108.193 62.1909 109.554 62.1909C109.838 62.1909 110.118 62.2425 110.378 62.3424C110.817 61.218 112.182 60.4871 113.921 60.4871C115.554 60.4871 116.697 61.1023 117.404 62.366C117.682 62.2502 117.983 62.1905 118.288 62.1906C119.649 62.1909 120.799 63.278 120.799 64.5652C120.799 65.7587 119.832 66.7453 118.589 66.8799L117.984 74.2004C117.978 74.2735 117.943 74.3418 117.885 74.3917C117.827 74.4415 117.751 74.4692 117.673 74.4692ZM110.459 73.8866H117.383L117.986 66.5819C117.999 66.4301 118.135 66.313 118.298 66.313C119.333 66.313 120.174 65.5291 120.174 64.5652C120.174 63.5093 119.18 62.7735 118.288 62.7735C117.981 62.7735 117.694 62.8533 117.436 63.0115C117.398 63.0348 117.355 63.0501 117.311 63.0563C117.266 63.0625 117.22 63.0595 117.176 63.0476C117.133 63.0356 117.092 63.0149 117.058 62.9869C117.024 62.959 116.997 62.9244 116.979 62.8856C116.39 61.6468 115.419 61.0697 113.921 61.0697C112.309 61.0697 111.089 61.7732 110.885 62.8201C110.876 62.8675 110.854 62.9121 110.822 62.9498C110.79 62.9875 110.748 63.0172 110.701 63.0362C110.653 63.0552 110.601 63.0629 110.55 63.0585C110.498 63.0542 110.449 63.038 110.406 63.0115C110.154 62.8551 109.857 62.7722 109.554 62.7735C108.662 62.7735 107.668 63.5093 107.668 64.5652C107.668 65.5291 108.509 66.313 109.544 66.313C109.623 66.313 109.698 66.3407 109.756 66.3905C109.814 66.4404 109.849 66.5087 109.856 66.5819L110.459 73.8866Z" fill="white"/>
<path d="M117.868 72.1389H109.974C109.891 72.1389 109.811 72.1082 109.753 72.0535C109.694 71.9989 109.661 71.9248 109.661 71.8476C109.661 71.7703 109.694 71.6962 109.753 71.6416C109.811 71.587 109.891 71.5563 109.974 71.5563H117.868C117.951 71.5563 118.031 71.587 118.089 71.6416C118.148 71.6962 118.181 71.7703 118.181 71.8476C118.181 71.9248 118.148 71.9989 118.089 72.0535C118.031 72.1082 117.951 72.1389 117.868 72.1389Z" fill="white"/>
<path d="M112.358 72.1389C112.275 72.1389 112.195 72.1082 112.137 72.0535C112.078 71.9989 112.045 71.9248 112.045 71.8476V69.5172C112.045 69.44 112.078 69.3659 112.137 69.3112C112.195 69.2566 112.275 69.2259 112.358 69.2259C112.441 69.2259 112.52 69.2566 112.579 69.3112C112.637 69.3659 112.67 69.44 112.67 69.5172V71.8476C112.67 71.9248 112.637 71.9989 112.579 72.0535C112.52 72.1082 112.441 72.1389 112.358 72.1389ZM113.921 72.1389C113.838 72.1389 113.758 72.1082 113.7 72.0535C113.641 71.9989 113.608 71.9248 113.608 71.8476V68.9346C113.608 68.8574 113.641 68.7833 113.7 68.7287C113.758 68.674 113.838 68.6433 113.921 68.6433C114.004 68.6433 114.083 68.674 114.142 68.7287C114.201 68.7833 114.234 68.8574 114.234 68.9346V71.8476C114.234 71.9248 114.201 71.9989 114.142 72.0535C114.083 72.1082 114.004 72.1389 113.921 72.1389ZM115.484 72.1389C115.401 72.1389 115.322 72.1082 115.263 72.0535C115.204 71.9989 115.172 71.9248 115.172 71.8476V69.5172C115.172 69.44 115.204 69.3659 115.263 69.3112C115.322 69.2566 115.401 69.2259 115.484 69.2259C115.567 69.2259 115.647 69.2566 115.705 69.3112C115.764 69.3659 115.797 69.44 115.797 69.5172V71.8476C115.797 71.9248 115.764 71.9989 115.705 72.0535C115.647 72.1082 115.567 72.1389 115.484 72.1389Z" fill="white"/>
</g>
<path d="M132.883 26.8992C132.466 26.8992 132.058 26.7766 131.711 26.5471C131.364 26.3175 131.093 25.9912 130.933 25.6095C130.774 25.2278 130.732 24.8077 130.813 24.4025C130.895 23.9972 131.096 23.625 131.391 23.3328C131.686 23.0406 132.062 22.8417 132.471 22.761C132.881 22.6804 133.305 22.7218 133.691 22.8799C134.076 23.0381 134.406 23.3058 134.638 23.6494C134.87 23.9929 134.994 24.3968 134.994 24.81C134.992 25.3637 134.77 25.8944 134.374 26.2859C133.979 26.6774 133.442 26.8979 132.883 26.8992ZM132.883 23.6494C132.651 23.6494 132.425 23.7175 132.232 23.845C132.039 23.9725 131.889 24.1538 131.8 24.3659C131.711 24.578 131.688 24.8113 131.733 25.0365C131.778 25.2616 131.89 25.4684 132.054 25.6307C132.218 25.793 132.427 25.9036 132.654 25.9484C132.882 25.9931 133.118 25.9702 133.332 25.8823C133.546 25.7945 133.729 25.6457 133.858 25.4548C133.987 25.264 134.056 25.0396 134.056 24.81C134.056 24.6576 134.025 24.5067 133.966 24.3659C133.907 24.2251 133.821 24.0971 133.712 23.9893C133.603 23.8816 133.474 23.7961 133.332 23.7378C133.19 23.6794 133.037 23.6494 132.883 23.6494ZM138.042 25.5064C137.532 25.5064 137.033 25.3567 136.609 25.0761C136.185 24.7955 135.854 24.3967 135.659 23.9302C135.464 23.4636 135.413 22.9502 135.512 22.4549C135.612 21.9596 135.857 21.5046 136.218 21.1475C136.579 20.7904 137.038 20.5472 137.539 20.4487C138.039 20.3502 138.558 20.4008 139.029 20.594C139.5 20.7873 139.903 21.1146 140.187 21.5345C140.47 21.9544 140.621 22.448 140.621 22.953C140.62 23.6299 140.348 24.2786 139.864 24.7572C139.381 25.2358 138.726 25.5052 138.042 25.5064ZM138.042 21.3282C137.717 21.3282 137.4 21.4235 137.13 21.602C136.86 21.7805 136.65 22.0343 136.525 22.3312C136.401 22.6281 136.369 22.9548 136.432 23.27C136.495 23.5852 136.652 23.8747 136.881 24.102C137.111 24.3292 137.403 24.484 137.722 24.5467C138.04 24.6094 138.37 24.5772 138.67 24.4542C138.97 24.3312 139.226 24.123 139.407 23.8558C139.587 23.5886 139.683 23.2744 139.683 22.953C139.683 22.5221 139.51 22.1088 139.203 21.8041C138.895 21.4994 138.477 21.3282 138.042 21.3282ZM142.028 32.9344H134.056C133.931 32.9344 133.812 32.8855 133.724 32.7984C133.636 32.7114 133.587 32.5933 133.587 32.4701C133.587 32.347 133.636 32.2289 133.724 32.1419C133.812 32.0548 133.931 32.0059 134.056 32.0059H141.559V29.4154C141.558 28.7386 141.286 28.0898 140.802 27.6112C140.319 27.1327 139.664 26.8632 138.98 26.862H137.104C136.607 26.8641 136.122 27.008 135.706 27.2765C135.29 27.5449 134.961 27.9265 134.759 28.3755C134.736 28.4347 134.702 28.4888 134.657 28.5343C134.613 28.5798 134.559 28.6158 134.5 28.6401C134.441 28.6644 134.377 28.6764 134.313 28.6754C134.249 28.6745 134.186 28.6605 134.128 28.6345C134.069 28.6085 134.017 28.5709 133.974 28.524C133.931 28.4772 133.898 28.4221 133.877 28.3622C133.856 28.3023 133.848 28.2388 133.853 28.1756C133.858 28.1124 133.876 28.0509 133.906 27.9948C134.181 27.3808 134.631 26.8592 135.201 26.4934C135.77 26.1275 136.434 25.933 137.113 25.9335H138.989C139.922 25.9335 140.817 26.3004 141.476 26.9533C142.136 27.6063 142.507 28.4919 142.507 29.4154V32.4701C142.507 32.5319 142.494 32.593 142.47 32.65C142.446 32.7069 142.41 32.7585 142.366 32.8018C142.321 32.845 142.269 32.879 142.211 32.9018C142.153 32.9245 142.091 32.9356 142.028 32.9344Z" fill="white"/>
<path d="M135.931 32.9344H129.835C129.71 32.9344 129.591 32.8855 129.503 32.7984C129.415 32.7113 129.366 32.5932 129.366 32.4701V30.8452C129.366 29.9218 129.736 29.0362 130.396 28.3832C131.056 27.7302 131.95 27.3634 132.883 27.3634C133.816 27.3634 134.711 27.7302 135.37 28.3832C136.03 29.0362 136.4 29.9218 136.4 30.8452V32.4701C136.4 32.5932 136.351 32.7113 136.263 32.7984C136.175 32.8855 136.056 32.9344 135.931 32.9344ZM130.304 32.0059H135.463V30.8452C135.463 30.168 135.191 29.5186 134.707 29.0397C134.223 28.5609 133.567 28.2919 132.883 28.2919C132.199 28.2919 131.543 28.5609 131.059 29.0397C130.576 29.5186 130.304 30.168 130.304 30.8452V32.0059Z" fill="white"/>
<path d="M131.711 31.5416C131.586 31.5416 131.467 31.4927 131.379 31.4057C131.291 31.3186 131.242 31.2005 131.242 31.0774V30.1489C131.242 30.0258 131.291 29.9077 131.379 29.8206C131.467 29.7335 131.586 29.6846 131.711 29.6846C131.835 29.6846 131.954 29.7335 132.042 29.8206C132.13 29.9077 132.18 30.0258 132.18 30.1489V31.0774C132.18 31.2005 132.13 31.3186 132.042 31.4057C131.954 31.4927 131.835 31.5416 131.711 31.5416ZM140.152 31.472C140.028 31.472 139.909 31.4231 139.821 31.336C139.733 31.2489 139.683 31.1309 139.683 31.0077V30.0792C139.683 29.9561 139.733 29.838 139.821 29.751C139.909 29.6639 140.028 29.615 140.152 29.615C140.277 29.615 140.396 29.6639 140.484 29.751C140.572 29.838 140.621 29.9561 140.621 30.0792V31.0077C140.621 31.1309 140.572 31.2489 140.484 31.336C140.396 31.4231 140.277 31.472 140.152 31.472Z" fill="white"/>
</g>
<g clip-path="url(#clip3_107_1564)">
<rect x="170.448" y="13.0645" width="68.3375" height="72.0346" rx="8" transform="rotate(90 170.448 13.0645)" fill="#2196F3"/>
<path d="M129.929 66.4532C129.929 62.1821 128.128 58.7652 125.426 56.2025L133.08 42.535C134.431 42.9622 135.331 42.9622 136.682 42.9622H138.483L144.336 55.3483C141.184 57.911 138.933 61.755 138.933 66.4532C138.933 74.5682 146.136 81.402 154.691 81.402C163.245 81.402 170.448 74.5682 170.448 66.4532C170.448 58.3381 163.245 51.5043 154.691 51.5043L152.89 51.5043L147.037 39.1182C150.188 36.5555 152.439 32.7115 152.439 28.0133C152.439 19.8983 145.236 13.0645 136.682 13.0645C128.128 13.0645 120.924 19.8983 120.924 28.0133C120.924 32.2844 122.725 35.7013 125.426 38.264L117.773 51.5043H114.171C105.617 51.5043 98.4135 58.3381 98.4135 66.4532C98.4135 74.5682 105.617 81.402 114.171 81.402C122.725 81.402 129.929 74.5682 129.929 66.4532ZM165.946 66.4532C165.946 72.4327 160.994 77.1309 154.691 77.1309C148.387 77.1309 143.435 72.4327 143.435 66.4532C143.435 60.4736 148.387 55.7754 154.691 55.7754C160.994 55.7754 165.946 60.4736 165.946 66.4532ZM125.426 28.0133C125.426 22.0338 130.379 17.3356 136.682 17.3356C142.985 17.3356 147.937 22.0338 147.937 28.0133C147.937 33.9929 142.985 38.6911 136.682 38.6911C130.379 38.6911 125.426 33.9929 125.426 28.0133ZM102.916 66.4532C102.916 60.4736 107.868 55.7754 114.171 55.7754C120.474 55.7754 125.426 60.4736 125.426 66.4532C125.426 72.4327 120.474 77.1309 114.171 77.1309C107.868 77.1309 102.916 72.4327 102.916 66.4532Z" fill="#FFC107"/>
<path d="M129.929 66.4532C129.929 62.1821 128.128 58.7652 125.426 56.2025L133.08 42.535C134.431 42.9622 135.331 42.9622 136.682 42.9622H138.483L144.336 55.3483C141.184 57.911 138.933 61.755 138.933 66.4532C138.933 74.5682 146.136 81.402 154.691 81.402C163.245 81.402 170.448 74.5682 170.448 66.4532C170.448 58.3381 163.245 51.5043 154.691 51.5043L152.89 51.5043L147.037 39.1182C150.188 36.5555 152.439 32.7115 152.439 28.0133C152.439 19.8983 145.236 13.0645 136.682 13.0645C128.128 13.0645 120.924 19.8983 120.924 28.0133C120.924 32.2844 122.725 35.7013 125.426 38.264L117.773 51.5043H114.171C105.617 51.5043 98.4135 58.3381 98.4135 66.4532C98.4135 74.5682 105.617 81.402 114.171 81.402C122.725 81.402 129.929 74.5682 129.929 66.4532ZM165.946 66.4532C165.946 72.4327 160.994 77.1309 154.691 77.1309C148.387 77.1309 143.435 72.4327 143.435 66.4532C143.435 60.4736 148.387 55.7754 154.691 55.7754C160.994 55.7754 165.946 60.4736 165.946 66.4532ZM125.426 28.0133C125.426 22.0338 130.379 17.3356 136.682 17.3356C142.985 17.3356 147.937 22.0338 147.937 28.0133C147.937 33.9929 142.985 38.6911 136.682 38.6911C130.379 38.6911 125.426 33.9929 125.426 28.0133ZM102.916 66.4532C102.916 60.4736 107.868 55.7754 114.171 55.7754C120.474 55.7754 125.426 60.4736 125.426 66.4532C125.426 72.4327 120.474 77.1309 114.171 77.1309C107.868 77.1309 102.916 72.4327 102.916 66.4532Z" stroke="#2196F3"/>
<g clip-path="url(#clip4_107_1564)">
<path d="M159.325 59.5824C159.43 59.4757 159.606 59.4688 159.719 59.5675C159.833 59.6661 159.84 59.8313 159.735 59.938L157.449 62.2624L157.445 62.267C157.166 62.5848 156.974 62.8785 156.888 63.147C156.813 63.3845 156.824 63.6002 156.936 63.7884C156.996 63.8893 156.976 64.0132 156.897 64.0947L155.811 65.1984C155.705 65.0894 155.621 65.001 155.565 64.9437C155.539 64.9116 155.51 64.8806 155.479 64.8507L155.477 64.853C155.462 64.8381 155.446 64.8244 155.43 64.8106L156.358 63.8664C156.25 63.5933 156.251 63.303 156.351 62.9944C156.459 62.6594 156.687 62.3026 157.015 61.9309C157.023 61.9217 157.029 61.9125 157.037 61.9045L159.322 59.5801L159.325 59.5824ZM154.414 65.8087C154.311 65.7009 154.321 65.5345 154.436 65.4382C154.551 65.3418 154.728 65.351 154.831 65.4588C155.98 66.6681 159.533 70.2465 160.517 71.5842C161.815 73.3109 159.805 73.8547 159.138 73.226C157.472 71.7127 153.935 67.8544 152.381 66.2183C151.821 66.4409 151.278 66.4753 150.732 66.3285C150.144 66.1713 149.569 65.803 148.985 65.2374L148.978 65.2305C148.534 64.7899 148.186 64.3551 147.934 63.9249C147.676 63.482 147.519 63.0438 147.463 62.6089C147.403 62.1408 147.449 61.7049 147.583 61.3182C147.741 60.8639 148.021 60.4796 148.387 60.1939C148.756 59.9071 149.209 59.7212 149.715 59.6638C150.135 59.6168 150.593 59.6569 151.067 59.8026C151.722 60.0034 152.487 60.5025 153.121 61.1427C153.588 61.6142 153.989 62.1661 154.227 62.734C154.475 63.326 154.551 63.9386 154.352 64.5123C154.235 64.8519 154.022 65.1708 153.692 65.4588C153.579 65.5575 153.403 65.5506 153.298 65.445C153.193 65.3383 153.2 65.1731 153.312 65.0745C153.568 64.8507 153.731 64.6064 153.821 64.3482C153.974 63.9042 153.91 63.412 153.707 62.9279C153.494 62.4208 153.134 61.9251 152.712 61.4995C152.14 60.9236 151.462 60.4773 150.891 60.3017C150.499 60.1824 150.124 60.148 149.781 60.187C149.382 60.2329 149.026 60.3763 148.741 60.6C148.455 60.8237 148.237 61.1255 148.111 61.4846C148.002 61.7978 147.964 62.158 148.015 62.547C148.062 62.9141 148.198 63.2893 148.42 63.6725C148.653 64.066 148.973 64.4641 149.385 64.8714L149.387 64.8748C149.903 65.3739 150.397 65.6952 150.887 65.826C151.35 65.9499 151.821 65.9017 152.313 65.6711C152.426 65.6103 152.571 65.6309 152.66 65.725C154.177 67.3209 157.867 71.3376 159.501 72.8256C160.21 73.0975 160.604 72.7625 160.264 72.1716C159.735 71.2492 155.192 66.6302 154.414 65.8087ZM152.941 68.116L149.38 71.7357C149.373 71.7426 149.366 71.7494 149.358 71.7563C148.838 72.2841 149.759 73.0528 150.33 72.5388L153.789 69.0223L154.16 69.4181L150.728 72.9071C150.721 72.9151 150.714 72.922 150.704 72.93C150.499 73.0918 150.292 73.1973 150.083 73.2409C149.868 73.2868 149.657 73.2662 149.454 73.1767C149.42 73.1641 149.388 73.148 149.36 73.1239L148.868 72.696C148.861 72.6891 148.854 72.6833 148.846 72.6753C148.656 72.4688 148.565 72.2485 148.59 72.0156C148.613 71.7953 148.738 71.5808 148.973 71.3743L152.569 67.719L152.941 68.116ZM156.673 66.0898L156.885 65.8753C156.99 65.7686 157.167 65.7617 157.279 65.8604C157.392 65.959 157.4 66.1242 157.295 66.2309L157.051 66.4788L156.673 66.0898ZM160.193 60.3499C160.298 60.2432 160.474 60.2363 160.588 60.335C160.701 60.4337 160.709 60.5989 160.604 60.7056L158.599 62.7443C158.494 62.851 158.319 62.8579 158.205 62.7592C158.091 62.6606 158.084 62.4954 158.189 62.3887L160.193 60.3499ZM161.06 61.1037C161.165 60.997 161.341 60.9901 161.455 61.0888C161.568 61.1874 161.576 61.3526 161.471 61.4593L159.468 63.4969C159.363 63.6036 159.187 63.6105 159.073 63.5119C158.96 63.4132 158.952 63.248 159.057 63.1413L161.06 61.1037ZM161.959 61.8873C162.064 61.7806 162.24 61.7737 162.354 61.8724C162.467 61.971 162.475 62.1374 162.37 62.2429L160.083 64.5685C160.075 64.5765 160.066 64.5834 160.058 64.5915C159.537 65.0619 159.04 65.3338 158.565 65.4106C158.05 65.4944 157.577 65.3567 157.144 65.001C157.028 64.9058 157.017 64.7395 157.117 64.6316C157.218 64.5226 157.395 64.5123 157.51 64.6064C157.809 64.8519 158.129 64.9483 158.468 64.8921C158.831 64.8335 159.232 64.6075 159.669 64.2117L159.672 64.2094L161.957 61.8861L161.959 61.8873Z" fill="white"/>
</g>
<g clip-path="url(#clip5_107_1564)">
<path d="M117.673 74.4692H110.169C110.09 74.4692 110.015 74.4415 109.957 74.3917C109.899 74.3418 109.863 74.2735 109.857 74.2004L109.253 66.8799C108.01 66.7453 107.043 65.7587 107.043 64.5652C107.043 63.278 108.193 62.1909 109.554 62.1909C109.838 62.1909 110.118 62.2425 110.378 62.3424C110.817 61.218 112.182 60.4871 113.921 60.4871C115.554 60.4871 116.697 61.1023 117.404 62.366C117.682 62.2502 117.983 62.1905 118.288 62.1906C119.649 62.1909 120.799 63.278 120.799 64.5652C120.799 65.7587 119.832 66.7453 118.589 66.8799L117.984 74.2004C117.978 74.2735 117.943 74.3418 117.885 74.3917C117.827 74.4415 117.751 74.4692 117.673 74.4692ZM110.459 73.8866H117.383L117.986 66.5819C117.999 66.4301 118.135 66.313 118.298 66.313C119.333 66.313 120.174 65.5291 120.174 64.5652C120.174 63.5093 119.18 62.7735 118.288 62.7735C117.981 62.7735 117.694 62.8533 117.436 63.0115C117.398 63.0348 117.355 63.0501 117.311 63.0563C117.266 63.0625 117.22 63.0595 117.176 63.0476C117.133 63.0356 117.092 63.0149 117.058 62.9869C117.024 62.959 116.997 62.9244 116.979 62.8856C116.39 61.6468 115.419 61.0697 113.921 61.0697C112.309 61.0697 111.089 61.7732 110.885 62.8201C110.876 62.8675 110.854 62.9121 110.822 62.9498C110.79 62.9875 110.748 63.0172 110.701 63.0362C110.653 63.0552 110.601 63.0629 110.55 63.0585C110.498 63.0542 110.449 63.038 110.406 63.0115C110.154 62.8551 109.857 62.7722 109.554 62.7735C108.662 62.7735 107.668 63.5093 107.668 64.5652C107.668 65.5291 108.509 66.313 109.544 66.313C109.623 66.313 109.698 66.3407 109.756 66.3905C109.814 66.4404 109.849 66.5087 109.856 66.5819L110.459 73.8866Z" fill="white"/>
<path d="M117.868 72.1389H109.974C109.891 72.1389 109.811 72.1082 109.753 72.0535C109.694 71.9989 109.661 71.9248 109.661 71.8476C109.661 71.7703 109.694 71.6962 109.753 71.6416C109.811 71.587 109.891 71.5563 109.974 71.5563H117.868C117.951 71.5563 118.031 71.587 118.089 71.6416C118.148 71.6962 118.181 71.7703 118.181 71.8476C118.181 71.9248 118.148 71.9989 118.089 72.0535C118.031 72.1082 117.951 72.1389 117.868 72.1389Z" fill="white"/>
<path d="M112.358 72.1389C112.275 72.1389 112.195 72.1082 112.137 72.0535C112.078 71.9989 112.045 71.9248 112.045 71.8476V69.5172C112.045 69.44 112.078 69.3659 112.137 69.3112C112.195 69.2566 112.275 69.2259 112.358 69.2259C112.441 69.2259 112.52 69.2566 112.579 69.3112C112.637 69.3659 112.67 69.44 112.67 69.5172V71.8476C112.67 71.9248 112.637 71.9989 112.579 72.0535C112.52 72.1082 112.441 72.1389 112.358 72.1389ZM113.921 72.1389C113.838 72.1389 113.758 72.1082 113.7 72.0535C113.641 71.9989 113.608 71.9248 113.608 71.8476V68.9346C113.608 68.8574 113.641 68.7833 113.7 68.7287C113.758 68.674 113.838 68.6433 113.921 68.6433C114.004 68.6433 114.083 68.674 114.142 68.7287C114.201 68.7833 114.234 68.8574 114.234 68.9346V71.8476C114.234 71.9248 114.201 71.9989 114.142 72.0535C114.083 72.1082 114.004 72.1389 113.921 72.1389ZM115.484 72.1389C115.401 72.1389 115.322 72.1082 115.263 72.0535C115.204 71.9989 115.172 71.9248 115.172 71.8476V69.5172C115.172 69.44 115.204 69.3659 115.263 69.3112C115.322 69.2566 115.401 69.2259 115.484 69.2259C115.567 69.2259 115.647 69.2566 115.705 69.3112C115.764 69.3659 115.797 69.44 115.797 69.5172V71.8476C115.797 71.9248 115.764 71.9989 115.705 72.0535C115.647 72.1082 115.567 72.1389 115.484 72.1389Z" fill="white"/>
</g>
<path d="M132.883 26.8992C132.466 26.8992 132.058 26.7766 131.711 26.5471C131.364 26.3175 131.093 25.9912 130.933 25.6095C130.774 25.2278 130.732 24.8077 130.813 24.4025C130.895 23.9972 131.096 23.625 131.391 23.3328C131.686 23.0406 132.062 22.8417 132.471 22.761C132.881 22.6804 133.305 22.7218 133.691 22.8799C134.076 23.0381 134.406 23.3058 134.638 23.6494C134.87 23.9929 134.994 24.3968 134.994 24.81C134.992 25.3637 134.77 25.8944 134.374 26.2859C133.979 26.6774 133.442 26.8979 132.883 26.8992ZM132.883 23.6494C132.651 23.6494 132.425 23.7175 132.232 23.845C132.039 23.9725 131.889 24.1538 131.8 24.3659C131.711 24.578 131.688 24.8113 131.733 25.0365C131.778 25.2616 131.89 25.4684 132.054 25.6307C132.218 25.793 132.427 25.9036 132.654 25.9484C132.882 25.9931 133.118 25.9702 133.332 25.8823C133.546 25.7945 133.729 25.6457 133.858 25.4548C133.987 25.264 134.056 25.0396 134.056 24.81C134.056 24.6576 134.025 24.5067 133.966 24.3659C133.907 24.2251 133.821 24.0971 133.712 23.9893C133.603 23.8816 133.474 23.7961 133.332 23.7378C133.19 23.6794 133.037 23.6494 132.883 23.6494ZM138.042 25.5064C137.532 25.5064 137.033 25.3567 136.609 25.0761C136.185 24.7955 135.854 24.3967 135.659 23.9302C135.464 23.4636 135.413 22.9502 135.512 22.4549C135.612 21.9596 135.857 21.5046 136.218 21.1475C136.579 20.7904 137.038 20.5472 137.539 20.4487C138.039 20.3502 138.558 20.4008 139.029 20.594C139.5 20.7873 139.903 21.1146 140.187 21.5345C140.47 21.9544 140.621 22.448 140.621 22.953C140.62 23.6299 140.348 24.2786 139.864 24.7572C139.381 25.2358 138.726 25.5052 138.042 25.5064ZM138.042 21.3282C137.717 21.3282 137.4 21.4235 137.13 21.602C136.86 21.7805 136.65 22.0343 136.525 22.3312C136.401 22.6281 136.369 22.9548 136.432 23.27C136.495 23.5852 136.652 23.8747 136.881 24.102C137.111 24.3292 137.403 24.484 137.722 24.5467C138.04 24.6094 138.37 24.5772 138.67 24.4542C138.97 24.3312 139.226 24.123 139.407 23.8558C139.587 23.5886 139.683 23.2744 139.683 22.953C139.683 22.5221 139.51 22.1088 139.203 21.8041C138.895 21.4994 138.477 21.3282 138.042 21.3282ZM142.028 32.9344H134.056C133.931 32.9344 133.812 32.8855 133.724 32.7984C133.636 32.7114 133.587 32.5933 133.587 32.4701C133.587 32.347 133.636 32.2289 133.724 32.1419C133.812 32.0548 133.931 32.0059 134.056 32.0059H141.559V29.4154C141.558 28.7386 141.286 28.0898 140.802 27.6112C140.319 27.1327 139.664 26.8632 138.98 26.862H137.104C136.607 26.8641 136.122 27.008 135.706 27.2765C135.29 27.5449 134.961 27.9265 134.759 28.3755C134.736 28.4347 134.702 28.4888 134.657 28.5343C134.613 28.5798 134.559 28.6158 134.5 28.6401C134.441 28.6644 134.377 28.6764 134.313 28.6754C134.249 28.6745 134.186 28.6605 134.128 28.6345C134.069 28.6085 134.017 28.5709 133.974 28.524C133.931 28.4772 133.898 28.4221 133.877 28.3622C133.856 28.3023 133.848 28.2388 133.853 28.1756C133.858 28.1124 133.876 28.0509 133.906 27.9948C134.181 27.3808 134.631 26.8592 135.201 26.4934C135.77 26.1275 136.434 25.933 137.113 25.9335H138.989C139.922 25.9335 140.817 26.3004 141.476 26.9533C142.136 27.6063 142.507 28.4919 142.507 29.4154V32.4701C142.507 32.5319 142.494 32.593 142.47 32.65C142.446 32.7069 142.41 32.7585 142.366 32.8018C142.321 32.845 142.269 32.879 142.211 32.9018C142.153 32.9245 142.091 32.9356 142.028 32.9344Z" fill="white"/>
<path d="M135.931 32.9344H129.835C129.71 32.9344 129.591 32.8855 129.503 32.7984C129.415 32.7113 129.366 32.5932 129.366 32.4701V30.8452C129.366 29.9218 129.736 29.0362 130.396 28.3832C131.056 27.7302 131.95 27.3634 132.883 27.3634C133.816 27.3634 134.711 27.7302 135.37 28.3832C136.03 29.0362 136.4 29.9218 136.4 30.8452V32.4701C136.4 32.5932 136.351 32.7113 136.263 32.7984C136.175 32.8855 136.056 32.9344 135.931 32.9344ZM130.304 32.0059H135.463V30.8452C135.463 30.168 135.191 29.5186 134.707 29.0397C134.223 28.5609 133.567 28.2919 132.883 28.2919C132.199 28.2919 131.543 28.5609 131.059 29.0397C130.576 29.5186 130.304 30.168 130.304 30.8452V32.0059Z" fill="white"/>
<path d="M131.711 31.5416C131.586 31.5416 131.467 31.4927 131.379 31.4057C131.291 31.3186 131.242 31.2005 131.242 31.0774V30.1489C131.242 30.0258 131.291 29.9077 131.379 29.8206C131.467 29.7335 131.586 29.6846 131.711 29.6846C131.835 29.6846 131.954 29.7335 132.042 29.8206C132.13 29.9077 132.18 30.0258 132.18 30.1489V31.0774C132.18 31.2005 132.13 31.3186 132.042 31.4057C131.954 31.4927 131.835 31.5416 131.711 31.5416ZM140.152 31.472C140.028 31.472 139.909 31.4231 139.821 31.336C139.733 31.2489 139.683 31.1309 139.683 31.0077V30.0792C139.683 29.9561 139.733 29.838 139.821 29.751C139.909 29.6639 140.028 29.615 140.152 29.615C140.277 29.615 140.396 29.6639 140.484 29.751C140.572 29.838 140.621 29.9561 140.621 30.0792V31.0077C140.621 31.1309 140.572 31.2489 140.484 31.336C140.396 31.4231 140.277 31.472 140.152 31.472Z" fill="white"/>
</g>
<path d="M39.3806 119.694C38.8366 119.694 38.3946 119.569 38.0546 119.32C37.7373 119.071 37.5446 118.742 37.4766 118.334C37.4086 117.903 37.4879 117.427 37.7146 116.906L46.6906 97.0158C46.9853 96.3585 47.3366 95.8938 47.7446 95.6218C48.1753 95.3272 48.6626 95.1798 49.2066 95.1798C49.7279 95.1798 50.1926 95.3272 50.6006 95.6218C51.0313 95.8938 51.3939 96.3585 51.6886 97.0158L60.6986 116.906C60.9479 117.427 61.0386 117.903 60.9706 118.334C60.9026 118.765 60.7099 119.105 60.3926 119.354C60.0753 119.581 59.6559 119.694 59.1346 119.694C58.4999 119.694 58.0013 119.547 57.6386 119.252C57.2986 118.935 56.9926 118.459 56.7206 117.824L54.5106 112.69L56.3466 113.88H41.9986L43.8346 112.69L41.6586 117.824C41.3639 118.481 41.0579 118.957 40.7406 119.252C40.4233 119.547 39.9699 119.694 39.3806 119.694ZM49.1386 100.178L44.3786 111.5L43.4946 110.412H54.8506L54.0006 111.5L49.2066 100.178H49.1386Z" fill="#FFC107"/>
<path d="M69.7134 119.762C67.832 119.762 66.4154 119.229 65.4634 118.164C64.5114 117.076 64.0354 115.489 64.0354 113.404V97.3218C64.0354 96.6192 64.2167 96.0865 64.5794 95.7238C64.942 95.3612 65.4634 95.1798 66.1434 95.1798C66.8234 95.1798 67.3447 95.3612 67.7074 95.7238C68.0927 96.0865 68.2854 96.6192 68.2854 97.3218V113.2C68.2854 114.243 68.5007 115.013 68.9314 115.512C69.3847 116.011 70.0194 116.26 70.8354 116.26C71.0167 116.26 71.1867 116.26 71.3454 116.26C71.504 116.237 71.6627 116.215 71.8214 116.192C72.1387 116.147 72.354 116.237 72.4674 116.464C72.5807 116.668 72.6374 117.099 72.6374 117.756C72.6374 118.323 72.524 118.765 72.2974 119.082C72.0707 119.399 71.6967 119.592 71.1754 119.66C70.9487 119.683 70.7107 119.705 70.4614 119.728C70.212 119.751 69.9627 119.762 69.7134 119.762ZM77.0008 119.66C76.3208 119.66 75.7995 119.456 75.4368 119.048C75.0741 118.64 74.8928 118.073 74.8928 117.348V104.87C74.8928 104.122 75.0741 103.555 75.4368 103.17C75.7995 102.762 76.3208 102.558 77.0008 102.558C77.6808 102.558 78.2021 102.762 78.5648 103.17C78.9501 103.555 79.1428 104.122 79.1428 104.87V117.348C79.1428 118.073 78.9615 118.64 78.5988 119.048C78.2361 119.456 77.7035 119.66 77.0008 119.66ZM77.0008 99.3958C76.2075 99.3958 75.5841 99.2032 75.1308 98.8178C74.7001 98.4098 74.4848 97.8545 74.4848 97.1518C74.4848 96.4265 74.7001 95.8712 75.1308 95.4858C75.5841 95.1005 76.2075 94.9078 77.0008 94.9078C77.8168 94.9078 78.4401 95.1005 78.8708 95.4858C79.3015 95.8712 79.5168 96.4265 79.5168 97.1518C79.5168 97.8545 79.3015 98.4098 78.8708 98.8178C78.4401 99.2032 77.8168 99.3958 77.0008 99.3958ZM85.7348 119.694C85.0548 119.694 84.5335 119.513 84.1708 119.15C83.8081 118.765 83.6268 118.221 83.6268 117.518V104.666C83.6268 103.963 83.8081 103.431 84.1708 103.068C84.5335 102.705 85.0435 102.524 85.7008 102.524C86.3581 102.524 86.8681 102.705 87.2308 103.068C87.5935 103.431 87.7748 103.963 87.7748 104.666V107.148L87.4008 106.128C87.8541 104.995 88.5568 104.099 89.5088 103.442C90.4608 102.785 91.5941 102.456 92.9088 102.456C94.2461 102.456 95.3455 102.773 96.2068 103.408C97.0681 104.043 97.6688 105.017 98.0088 106.332H97.5328C97.9861 105.131 98.7342 104.19 99.7768 103.51C100.819 102.807 102.021 102.456 103.381 102.456C104.65 102.456 105.693 102.705 106.509 103.204C107.347 103.703 107.971 104.462 108.379 105.482C108.787 106.479 108.991 107.749 108.991 109.29V117.518C108.991 118.221 108.798 118.765 108.413 119.15C108.05 119.513 107.529 119.694 106.849 119.694C106.169 119.694 105.647 119.513 105.285 119.15C104.922 118.765 104.741 118.221 104.741 117.518V109.46C104.741 108.191 104.525 107.261 104.095 106.672C103.687 106.083 102.984 105.788 101.987 105.788C100.876 105.788 100.003 106.185 99.3688 106.978C98.7342 107.749 98.4168 108.825 98.4168 110.208V117.518C98.4168 118.221 98.2355 118.765 97.8728 119.15C97.5102 119.513 96.9888 119.694 96.3088 119.694C95.6288 119.694 95.0961 119.513 94.7108 119.15C94.3481 118.765 94.1668 118.221 94.1668 117.518V109.46C94.1668 108.191 93.9515 107.261 93.5208 106.672C93.1128 106.083 92.4215 105.788 91.4468 105.788C90.3361 105.788 89.4635 106.185 88.8288 106.978C88.1941 107.749 87.8768 108.825 87.8768 110.208V117.518C87.8768 118.969 87.1628 119.694 85.7348 119.694ZM121.569 119.762C119.688 119.762 118.067 119.411 116.707 118.708C115.347 118.005 114.293 117.008 113.545 115.716C112.82 114.424 112.457 112.894 112.457 111.126C112.457 109.403 112.809 107.896 113.511 106.604C114.237 105.312 115.223 104.303 116.469 103.578C117.739 102.83 119.178 102.456 120.787 102.456C121.966 102.456 123.02 102.649 123.949 103.034C124.901 103.419 125.706 103.975 126.363 104.7C127.043 105.425 127.553 106.309 127.893 107.352C128.256 108.372 128.437 109.528 128.437 110.82C128.437 111.228 128.29 111.545 127.995 111.772C127.723 111.976 127.327 112.078 126.805 112.078H115.891V109.63H125.445L124.901 110.14C124.901 109.097 124.743 108.225 124.425 107.522C124.131 106.819 123.689 106.287 123.099 105.924C122.533 105.539 121.819 105.346 120.957 105.346C120.005 105.346 119.189 105.573 118.509 106.026C117.852 106.457 117.342 107.08 116.979 107.896C116.639 108.689 116.469 109.641 116.469 110.752V110.99C116.469 112.849 116.9 114.243 117.761 115.172C118.645 116.079 119.937 116.532 121.637 116.532C122.227 116.532 122.884 116.464 123.609 116.328C124.357 116.169 125.06 115.909 125.717 115.546C126.193 115.274 126.613 115.161 126.975 115.206C127.338 115.229 127.621 115.353 127.825 115.58C128.052 115.807 128.188 116.09 128.233 116.43C128.279 116.747 128.211 117.076 128.029 117.416C127.871 117.756 127.587 118.051 127.179 118.3C126.386 118.799 125.468 119.173 124.425 119.422C123.405 119.649 122.453 119.762 121.569 119.762ZM133.911 119.694C133.231 119.694 132.71 119.513 132.347 119.15C131.984 118.765 131.803 118.221 131.803 117.518V104.666C131.803 103.963 131.984 103.431 132.347 103.068C132.71 102.705 133.22 102.524 133.877 102.524C134.534 102.524 135.044 102.705 135.407 103.068C135.77 103.431 135.951 103.963 135.951 104.666V106.978L135.577 106.128C136.076 104.927 136.846 104.02 137.889 103.408C138.954 102.773 140.156 102.456 141.493 102.456C142.83 102.456 143.93 102.705 144.791 103.204C145.652 103.703 146.298 104.462 146.729 105.482C147.16 106.479 147.375 107.749 147.375 109.29V117.518C147.375 118.221 147.194 118.765 146.831 119.15C146.468 119.513 145.947 119.694 145.267 119.694C144.587 119.694 144.054 119.513 143.669 119.15C143.306 118.765 143.125 118.221 143.125 117.518V109.494C143.125 108.202 142.876 107.261 142.377 106.672C141.901 106.083 141.153 105.788 140.133 105.788C138.886 105.788 137.889 106.185 137.141 106.978C136.416 107.749 136.053 108.78 136.053 110.072V117.518C136.053 118.969 135.339 119.694 133.911 119.694ZM159.308 119.762C157.834 119.762 156.599 119.513 155.602 119.014C154.627 118.515 153.902 117.79 153.426 116.838C152.95 115.863 152.712 114.662 152.712 113.234V105.992H150.944C150.4 105.992 149.98 105.856 149.686 105.584C149.391 105.289 149.244 104.893 149.244 104.394C149.244 103.873 149.391 103.476 149.686 103.204C149.98 102.932 150.4 102.796 150.944 102.796H152.712V99.7018C152.712 98.9992 152.893 98.4665 153.256 98.1038C153.641 97.7412 154.174 97.5598 154.854 97.5598C155.534 97.5598 156.055 97.7412 156.418 98.1038C156.78 98.4665 156.962 98.9992 156.962 99.7018V102.796H160.566C161.11 102.796 161.529 102.932 161.824 103.204C162.118 103.476 162.266 103.873 162.266 104.394C162.266 104.893 162.118 105.289 161.824 105.584C161.529 105.856 161.11 105.992 160.566 105.992H156.962V112.996C156.962 114.084 157.2 114.9 157.676 115.444C158.152 115.988 158.922 116.26 159.988 116.26C160.373 116.26 160.713 116.226 161.008 116.158C161.302 116.09 161.563 116.045 161.79 116.022C162.062 115.999 162.288 116.09 162.47 116.294C162.651 116.475 162.742 116.861 162.742 117.45C162.742 117.903 162.662 118.311 162.504 118.674C162.368 119.014 162.107 119.252 161.722 119.388C161.427 119.479 161.042 119.558 160.566 119.626C160.09 119.717 159.67 119.762 159.308 119.762ZM170.214 119.762C169.013 119.762 167.936 119.535 166.984 119.082C166.055 118.606 165.318 117.971 164.774 117.178C164.253 116.385 163.992 115.489 163.992 114.492C163.992 113.268 164.31 112.305 164.944 111.602C165.579 110.877 166.61 110.355 168.038 110.038C169.466 109.721 171.382 109.562 173.784 109.562H175.484V112.01H173.818C172.413 112.01 171.291 112.078 170.452 112.214C169.614 112.35 169.013 112.588 168.65 112.928C168.31 113.245 168.14 113.699 168.14 114.288C168.14 115.036 168.401 115.648 168.922 116.124C169.444 116.6 170.169 116.838 171.098 116.838C171.846 116.838 172.504 116.668 173.07 116.328C173.66 115.965 174.124 115.478 174.464 114.866C174.804 114.254 174.974 113.551 174.974 112.758V108.848C174.974 107.715 174.725 106.899 174.226 106.4C173.728 105.901 172.889 105.652 171.71 105.652C171.053 105.652 170.339 105.731 169.568 105.89C168.82 106.049 168.027 106.321 167.188 106.706C166.758 106.91 166.372 106.967 166.032 106.876C165.715 106.785 165.466 106.604 165.284 106.332C165.103 106.037 165.012 105.72 165.012 105.38C165.012 105.04 165.103 104.711 165.284 104.394C165.466 104.054 165.772 103.805 166.202 103.646C167.245 103.215 168.242 102.909 169.194 102.728C170.169 102.547 171.053 102.456 171.846 102.456C173.478 102.456 174.816 102.705 175.858 103.204C176.924 103.703 177.717 104.462 178.238 105.482C178.76 106.479 179.02 107.771 179.02 109.358V117.518C179.02 118.221 178.85 118.765 178.51 119.15C178.17 119.513 177.683 119.694 177.048 119.694C176.414 119.694 175.915 119.513 175.552 119.15C175.212 118.765 175.042 118.221 175.042 117.518V115.886H175.314C175.156 116.679 174.838 117.371 174.362 117.96C173.909 118.527 173.331 118.969 172.628 119.286C171.926 119.603 171.121 119.762 170.214 119.762ZM185.51 119.694C184.808 119.694 184.264 119.513 183.878 119.15C183.516 118.765 183.334 118.221 183.334 117.518V104.666C183.334 103.963 183.516 103.431 183.878 103.068C184.241 102.705 184.751 102.524 185.408 102.524C186.066 102.524 186.576 102.705 186.938 103.068C187.301 103.431 187.482 103.963 187.482 104.666V106.808H187.142C187.46 105.448 188.083 104.417 189.012 103.714C189.942 103.011 191.177 102.592 192.718 102.456C193.194 102.411 193.568 102.535 193.84 102.83C194.135 103.102 194.305 103.533 194.35 104.122C194.396 104.689 194.26 105.153 193.942 105.516C193.648 105.856 193.194 106.06 192.582 106.128L191.834 106.196C190.452 106.332 189.409 106.763 188.706 107.488C188.004 108.191 187.652 109.188 187.652 110.48V117.518C187.652 118.221 187.471 118.765 187.108 119.15C186.746 119.513 186.213 119.694 185.51 119.694ZM198.757 119.66C198.077 119.66 197.555 119.456 197.193 119.048C196.83 118.64 196.649 118.073 196.649 117.348V104.87C196.649 104.122 196.83 103.555 197.193 103.17C197.555 102.762 198.077 102.558 198.757 102.558C199.437 102.558 199.958 102.762 200.321 103.17C200.706 103.555 200.899 104.122 200.899 104.87V117.348C200.899 118.073 200.717 118.64 200.355 119.048C199.992 119.456 199.459 119.66 198.757 119.66ZM198.757 99.3958C197.963 99.3958 197.34 99.2032 196.887 98.8178C196.456 98.4098 196.241 97.8545 196.241 97.1518C196.241 96.4265 196.456 95.8712 196.887 95.4858C197.34 95.1005 197.963 94.9078 198.757 94.9078C199.573 94.9078 200.196 95.1005 200.627 95.4858C201.057 95.8712 201.273 96.4265 201.273 97.1518C201.273 97.8545 201.057 98.4098 200.627 98.8178C200.196 99.2032 199.573 99.3958 198.757 99.3958ZM206.335 119.422C205.904 119.422 205.541 119.32 205.247 119.116C204.975 118.889 204.793 118.606 204.703 118.266C204.612 117.926 204.612 117.563 204.703 117.178C204.816 116.77 205.031 116.385 205.349 116.022L214.155 104.972V105.992H206.131C205.609 105.992 205.201 105.856 204.907 105.584C204.635 105.289 204.499 104.893 204.499 104.394C204.499 103.873 204.635 103.476 204.907 103.204C205.201 102.932 205.609 102.796 206.131 102.796H216.195C216.693 102.796 217.101 102.909 217.419 103.136C217.736 103.34 217.94 103.612 218.031 103.952C218.144 104.292 218.155 104.655 218.065 105.04C217.974 105.425 217.77 105.788 217.453 106.128L208.477 117.348V116.226H216.977C218.065 116.226 218.609 116.759 218.609 117.824C218.609 118.323 218.461 118.719 218.167 119.014C217.895 119.286 217.498 119.422 216.977 119.422H206.335ZM229.28 119.762C227.399 119.762 225.778 119.411 224.418 118.708C223.058 118.005 222.004 117.008 221.256 115.716C220.531 114.424 220.168 112.894 220.168 111.126C220.168 109.403 220.519 107.896 221.222 106.604C221.947 105.312 222.933 104.303 224.18 103.578C225.449 102.83 226.889 102.456 228.498 102.456C229.677 102.456 230.731 102.649 231.66 103.034C232.612 103.419 233.417 103.975 234.074 104.7C234.754 105.425 235.264 106.309 235.604 107.352C235.967 108.372 236.148 109.528 236.148 110.82C236.148 111.228 236.001 111.545 235.706 111.772C235.434 111.976 235.037 112.078 234.516 112.078H223.602V109.63H233.156L232.612 110.14C232.612 109.097 232.453 108.225 232.136 107.522C231.841 106.819 231.399 106.287 230.81 105.924C230.243 105.539 229.529 105.346 228.668 105.346C227.716 105.346 226.9 105.573 226.22 106.026C225.563 106.457 225.053 107.08 224.69 107.896C224.35 108.689 224.18 109.641 224.18 110.752V110.99C224.18 112.849 224.611 114.243 225.472 115.172C226.356 116.079 227.648 116.532 229.348 116.532C229.937 116.532 230.595 116.464 231.32 116.328C232.068 116.169 232.771 115.909 233.428 115.546C233.904 115.274 234.323 115.161 234.686 115.206C235.049 115.229 235.332 115.353 235.536 115.58C235.763 115.807 235.899 116.09 235.944 116.43C235.989 116.747 235.921 117.076 235.74 117.416C235.581 117.756 235.298 118.051 234.89 118.3C234.097 118.799 233.179 119.173 232.136 119.422C231.116 119.649 230.164 119.762 229.28 119.762Z" fill="#2196F3"/>
<defs>
<clipPath id="clip0_107_1564">
<rect x="170.448" y="13.0645" width="68.3375" height="72.0346" rx="5" transform="rotate(90 170.448 13.0645)" fill="white"/>
</clipPath>
<clipPath id="clip1_107_1564">
<rect width="15.0072" height="13.9821" fill="white" transform="translate(147.437 59.4967)"/>
</clipPath>
<clipPath id="clip2_107_1564">
<rect width="15.0072" height="13.9821" fill="white" transform="translate(106.417 60.4871)"/>
</clipPath>
<clipPath id="clip3_107_1564">
<rect x="170.448" y="13.0645" width="68.3375" height="72.0346" rx="8" transform="rotate(90 170.448 13.0645)" fill="white"/>
</clipPath>
<clipPath id="clip4_107_1564">
<rect width="15.0072" height="13.9821" fill="white" transform="translate(147.437 59.4967)"/>
</clipPath>
<clipPath id="clip5_107_1564">
<rect width="15.0072" height="13.9821" fill="white" transform="translate(106.417 60.4871)"/>
</clipPath>
</defs>
</svg>
