<svg width="230" height="48" viewBox="0 0 230 48" fill="none" xmlns="http://www.w3.org/2000/svg">
<g clip-path="url(#clip0_104_902)">
<rect x="48.4754" width="48" height="48.4754" rx="8" transform="rotate(90 48.4754 0)" fill="#2196F3"/>
<path d="M21.208 37.5C21.208 34.5 19.9961 32.1 18.1783 30.3L23.3288 20.7C24.2377 21 24.8436 21 25.7526 21H26.9644L30.9031 29.7C28.7823 31.5 27.2674 34.2 27.2674 37.5C27.2674 43.2 32.115 48 37.8714 48C43.6279 48 48.4754 43.2 48.4754 37.5C48.4754 31.8 43.6279 27 37.8714 27H36.6595L32.7209 18.3C34.8417 16.5 36.3565 13.8 36.3565 10.5C36.3565 4.8 31.509 0 25.7526 0C19.9961 0 15.1486 4.8 15.1486 10.5C15.1486 13.5 16.3604 15.9 18.1783 17.7L13.0278 27H10.604C4.84753 27 -8.55473e-06 31.8 -8.55473e-06 37.5C-8.55473e-06 43.2 4.84753 48 10.604 48C16.3604 48 21.208 43.2 21.208 37.5ZM45.4457 37.5C45.4457 41.7 42.113 45 37.8714 45C33.6298 45 30.2971 41.7 30.2971 37.5C30.2971 33.3 33.6298 30 37.8714 30C42.113 30 45.4457 33.3 45.4457 37.5ZM18.1783 10.5C18.1783 6.3 21.511 3 25.7526 3C29.9942 3 33.3268 6.3 33.3268 10.5C33.3268 14.7 29.9942 18 25.7526 18C21.511 18 18.1783 14.7 18.1783 10.5ZM3.0297 37.5C3.0297 33.3 6.36238 30 10.604 30C14.8456 30 18.1783 33.3 18.1783 37.5C18.1783 41.7 14.8456 45 10.604 45C6.36238 45 3.0297 41.7 3.0297 37.5Z" fill="#FFC107"/>
<path d="M21.208 37.5C21.208 34.5 19.9961 32.1 18.1783 30.3L23.3288 20.7C24.2377 21 24.8436 21 25.7526 21H26.9644L30.9031 29.7C28.7823 31.5 27.2674 34.2 27.2674 37.5C27.2674 43.2 32.115 48 37.8714 48C43.6279 48 48.4754 43.2 48.4754 37.5C48.4754 31.8 43.6279 27 37.8714 27H36.6595L32.7209 18.3C34.8417 16.5 36.3565 13.8 36.3565 10.5C36.3565 4.8 31.509 0 25.7526 0C19.9961 0 15.1486 4.8 15.1486 10.5C15.1486 13.5 16.3604 15.9 18.1783 17.7L13.0278 27H10.604C4.84753 27 -8.55473e-06 31.8 -8.55473e-06 37.5C-8.55473e-06 43.2 4.84753 48 10.604 48C16.3604 48 21.208 43.2 21.208 37.5ZM45.4457 37.5C45.4457 41.7 42.113 45 37.8714 45C33.6298 45 30.2971 41.7 30.2971 37.5C30.2971 33.3 33.6298 30 37.8714 30C42.113 30 45.4457 33.3 45.4457 37.5ZM18.1783 10.5C18.1783 6.3 21.511 3 25.7526 3C29.9942 3 33.3268 6.3 33.3268 10.5C33.3268 14.7 29.9942 18 25.7526 18C21.511 18 18.1783 14.7 18.1783 10.5ZM3.0297 37.5C3.0297 33.3 6.36238 30 10.604 30C14.8456 30 18.1783 33.3 18.1783 37.5C18.1783 41.7 14.8456 45 10.604 45C6.36238 45 3.0297 41.7 3.0297 37.5Z" stroke="#2196F3"/>
<g clip-path="url(#clip1_104_902)">
<path d="M40.9901 32.6739C41.0608 32.599 41.1791 32.5941 41.2556 32.6634C41.332 32.7328 41.3369 32.8488 41.2662 32.9237L39.7277 34.5564L39.7252 34.5596C39.537 34.7828 39.408 34.9891 39.3505 35.1777C39.2995 35.3445 39.3069 35.496 39.3825 35.6282C39.4228 35.6991 39.4097 35.7861 39.3562 35.8434L38.6256 36.6186C38.5541 36.542 38.4974 36.48 38.4596 36.4397C38.4423 36.4171 38.4226 36.3954 38.402 36.3744L38.4004 36.376C38.3905 36.3656 38.3799 36.3559 38.3692 36.3462L38.9938 35.683C38.9206 35.4912 38.9215 35.2873 38.9889 35.0705C39.0612 34.8352 39.2149 34.5846 39.436 34.3235C39.4409 34.3171 39.445 34.3106 39.4507 34.305L40.9885 32.6723L40.9901 32.6739ZM37.6854 37.0473C37.6164 36.9716 37.6229 36.8547 37.7002 36.787C37.7774 36.7193 37.8966 36.7258 37.9656 36.8015C38.739 37.6509 41.1298 40.1644 41.7922 41.104C42.6659 42.3168 41.3131 42.6988 40.8643 42.2572C39.7433 41.1942 37.3632 38.4841 36.317 37.335C35.9406 37.4913 35.5748 37.5155 35.2075 37.4124C34.8122 37.302 34.4251 37.0433 34.0322 36.646L34.0273 36.6412C33.7281 36.3317 33.4939 36.0263 33.3246 35.7241C33.1512 35.413 33.0452 35.1052 33.0073 34.7998C32.9671 34.471 32.9983 34.1648 33.0887 33.8932C33.1947 33.5741 33.3829 33.3041 33.6295 33.1034C33.8777 32.902 34.1826 32.7714 34.5229 32.7311C34.8056 32.6981 35.1138 32.7263 35.4327 32.8286C35.874 32.9697 36.3885 33.3202 36.815 33.7699C37.1298 34.1011 37.3994 34.4887 37.5596 34.8876C37.7265 35.3034 37.7774 35.7338 37.6435 36.1367C37.5646 36.3752 37.4216 36.5992 37.1997 36.8015C37.1232 36.8708 37.0049 36.866 36.9342 36.7918C36.8635 36.7169 36.8685 36.6009 36.9441 36.5316C37.1158 36.3744 37.226 36.2028 37.286 36.0214C37.3895 35.7096 37.346 35.3639 37.2095 35.0238C37.0665 34.6676 36.8241 34.3195 36.5397 34.0205C36.1551 33.616 35.6989 33.3025 35.3143 33.1792C35.0505 33.0954 34.7982 33.0712 34.5672 33.0986C34.2993 33.1308 34.0593 33.2316 33.8678 33.3887C33.6755 33.5459 33.5284 33.7578 33.4438 34.01C33.3706 34.23 33.3451 34.4831 33.3788 34.7563C33.4109 35.0141 33.5021 35.2776 33.6517 35.5468C33.8087 35.8232 34.024 36.1028 34.301 36.3889L34.3026 36.3913C34.6494 36.7419 34.9823 36.9675 35.3118 37.0594C35.6233 37.1464 35.9406 37.1126 36.2718 36.9506C36.3474 36.9079 36.4452 36.9224 36.5052 36.9885C37.5259 38.1094 40.0088 40.9307 41.1084 41.9759C41.5859 42.1669 41.8506 41.9316 41.6221 41.5166C41.2662 40.8687 38.2089 37.6243 37.6854 37.0473ZM36.6942 38.6679L34.2977 41.2104C34.2927 41.2152 34.2886 41.22 34.2829 41.2249C33.9328 41.5956 34.5524 42.1355 34.9371 41.7745L37.2646 39.3045L37.5144 39.5825L35.205 42.0331C35.2001 42.0388 35.1951 42.0436 35.1886 42.0493C35.0505 42.1629 34.9116 42.237 34.7711 42.2676C34.6264 42.2999 34.4842 42.2854 34.3478 42.2225C34.3248 42.2136 34.3034 42.2024 34.2845 42.1854L33.9533 41.8849C33.9484 41.88 33.9434 41.876 33.9385 41.8704C33.8103 41.7253 33.7495 41.5706 33.7659 41.407C33.7815 41.2523 33.8654 41.1016 34.024 40.9565L36.4436 38.3891L36.6942 38.6679ZM39.2058 37.2447L39.348 37.094C39.4187 37.0191 39.5379 37.0143 39.6135 37.0836C39.6891 37.1529 39.6948 37.2689 39.6242 37.3439L39.4598 37.5179L39.2058 37.2447ZM41.5744 33.213C41.6451 33.1381 41.7635 33.1333 41.8399 33.2026C41.9163 33.2719 41.9213 33.3879 41.8506 33.4629L40.5019 34.8949C40.4312 34.9698 40.3129 34.9746 40.2364 34.9053C40.16 34.836 40.1551 34.72 40.2258 34.645L41.5744 33.213ZM42.158 33.7425C42.2286 33.6675 42.347 33.6627 42.4234 33.732C42.4999 33.8013 42.5048 33.9174 42.4341 33.9923L41.0863 35.4235C41.0156 35.4984 40.8972 35.5033 40.8208 35.434C40.7444 35.3647 40.7394 35.2486 40.8101 35.1737L42.158 33.7425ZM42.7628 34.2929C42.8335 34.2179 42.9519 34.2131 43.0283 34.2824C43.1047 34.3517 43.1097 34.4686 43.039 34.5427L41.5005 36.1762C41.4947 36.1818 41.489 36.1866 41.4832 36.1923C41.1331 36.5227 40.7986 36.7137 40.4789 36.7677C40.1321 36.8265 39.814 36.7298 39.5222 36.48C39.4442 36.4131 39.4368 36.2962 39.5042 36.2205C39.5724 36.1439 39.6916 36.1367 39.7688 36.2028C39.9702 36.3752 40.1855 36.4429 40.4131 36.4034C40.6581 36.3623 40.9276 36.2036 41.2219 35.9256L41.2235 35.9239L42.7612 34.2921L42.7628 34.2929Z" fill="white"/>
</g>
<g clip-path="url(#clip2_104_902)">
<path d="M12.9604 43.1304H7.91085C7.85786 43.1304 7.80681 43.111 7.76793 43.076C7.72904 43.041 7.70517 42.993 7.70109 42.9416L7.29439 37.7997C6.45806 37.7052 5.80688 37.0122 5.80688 36.1739C5.80688 35.2698 6.58072 34.5062 7.49679 34.5062C7.68825 34.5062 7.87614 34.5424 8.0514 34.6126C8.34679 33.8228 9.2656 33.3094 10.4356 33.3094C11.5347 33.3094 12.3035 33.7416 12.7794 34.6291C12.9666 34.5478 13.1694 34.5059 13.3744 34.506C14.2905 34.5062 15.0643 35.2698 15.0643 36.1739C15.0643 37.0122 14.4132 37.7052 13.5768 37.7997L13.1701 42.9416C13.1661 42.993 13.1422 43.041 13.1033 43.076C13.0644 43.111 13.0134 43.1304 12.9604 43.1304ZM8.10568 42.7212H12.7653L13.1712 37.5904C13.1798 37.4838 13.2713 37.4015 13.3812 37.4015C14.0774 37.4015 14.6435 36.8509 14.6435 36.1739C14.6435 35.4322 13.9747 34.9154 13.3744 34.9154C13.1678 34.9154 12.9749 34.9714 12.8013 35.0825C12.7758 35.0989 12.7469 35.1096 12.7166 35.114C12.6864 35.1184 12.6555 35.1163 12.6262 35.1079C12.5969 35.0995 12.5698 35.0849 12.5468 35.0653C12.5239 35.0457 12.5056 35.0214 12.4933 34.9942C12.0973 34.124 11.4436 33.7187 10.4356 33.7187C9.3506 33.7187 8.52963 34.2128 8.39266 34.9481C8.38654 34.9814 8.37201 35.0127 8.35037 35.0392C8.32872 35.0657 8.30065 35.0866 8.26867 35.0999C8.23668 35.1132 8.2018 35.1186 8.16714 35.1156C8.13248 35.1126 8.09914 35.1012 8.07012 35.0825C7.90041 34.9727 7.70088 34.9145 7.497 34.9154C6.89653 34.9154 6.22768 35.4322 6.22768 36.1739C6.22768 36.8509 6.79386 37.4015 7.49006 37.4015C7.54305 37.4015 7.5941 37.421 7.63298 37.456C7.67187 37.491 7.69574 37.539 7.69982 37.5904L8.10568 42.7212Z" fill="white"/>
<path d="M13.0919 41.4936H7.77937C7.72357 41.4936 7.67005 41.4721 7.63059 41.4337C7.59114 41.3953 7.56897 41.3433 7.56897 41.289C7.56897 41.2348 7.59114 41.1827 7.63059 41.1443C7.67005 41.106 7.72357 41.0844 7.77937 41.0844H13.0919C13.1477 41.0844 13.2012 41.106 13.2407 41.1443C13.2801 41.1827 13.3023 41.2348 13.3023 41.289C13.3023 41.3433 13.2801 41.3953 13.2407 41.4337C13.2012 41.4721 13.1477 41.4936 13.0919 41.4936Z" fill="white"/>
<path d="M9.38361 41.4936C9.32781 41.4936 9.2743 41.472 9.23484 41.4336C9.19538 41.3953 9.17322 41.3432 9.17322 41.289V39.6521C9.17322 39.5979 9.19538 39.5458 9.23484 39.5075C9.2743 39.4691 9.32781 39.4475 9.38361 39.4475C9.43941 39.4475 9.49293 39.4691 9.53239 39.5075C9.57184 39.5458 9.59401 39.5979 9.59401 39.6521V41.289C9.59401 41.3432 9.57184 41.3953 9.53239 41.4336C9.49293 41.472 9.43941 41.4936 9.38361 41.4936ZM10.4356 41.4936C10.3798 41.4936 10.3263 41.472 10.2868 41.4336C10.2474 41.3953 10.2252 41.3432 10.2252 41.289V39.2429C10.2252 39.1887 10.2474 39.1366 10.2868 39.0983C10.3263 39.0599 10.3798 39.0383 10.4356 39.0383C10.4914 39.0383 10.5449 39.0599 10.5844 39.0983C10.6238 39.1366 10.646 39.1887 10.646 39.2429V41.289C10.646 41.3432 10.6238 41.3953 10.5844 41.4336C10.5449 41.472 10.4914 41.4936 10.4356 41.4936ZM11.4876 41.4936C11.4318 41.4936 11.3783 41.472 11.3388 41.4336C11.2994 41.3953 11.2772 41.3432 11.2772 41.289V39.6521C11.2772 39.5979 11.2994 39.5458 11.3388 39.5075C11.3783 39.4691 11.4318 39.4475 11.4876 39.4475C11.5434 39.4475 11.5969 39.4691 11.6364 39.5075C11.6758 39.5458 11.698 39.5979 11.698 39.6521V41.289C11.698 41.3432 11.6758 41.3953 11.6364 41.4336C11.5969 41.472 11.5434 41.4936 11.4876 41.4936Z" fill="white"/>
</g>
<g clip-path="url(#clip3_104_902)">
<path d="M23.1962 9.71739C22.9154 9.71739 22.6408 9.63132 22.4072 9.47009C22.1737 9.30885 21.9917 9.07967 21.8842 8.81154C21.7767 8.54341 21.7486 8.24836 21.8034 7.96372C21.8581 7.67907 21.9934 7.41761 22.192 7.21239C22.3906 7.00717 22.6437 6.86741 22.9192 6.81079C23.1947 6.75417 23.4802 6.78323 23.7397 6.8943C23.9992 7.00536 24.221 7.19344 24.3771 7.43475C24.5331 7.67606 24.6164 7.95977 24.6164 8.24999C24.6156 8.6389 24.4657 9.01164 24.1995 9.28664C23.9334 9.56165 23.5726 9.71652 23.1962 9.71739ZM23.1962 7.43477C23.0402 7.43477 22.8877 7.48258 22.7579 7.57216C22.6282 7.66174 22.527 7.78906 22.4673 7.93802C22.4076 8.08698 22.392 8.2509 22.4224 8.40903C22.4529 8.56717 22.528 8.71243 22.6383 8.82644C22.7487 8.94045 22.8893 9.01809 23.0423 9.04955C23.1954 9.081 23.354 9.06486 23.4982 9.00316C23.6423 8.94145 23.7656 8.83697 23.8523 8.7029C23.939 8.56884 23.9852 8.41123 23.9852 8.24999C23.9852 8.14294 23.9648 8.03693 23.9252 7.93802C23.8855 7.83911 23.8274 7.74925 23.7541 7.67355C23.6809 7.59785 23.5939 7.5378 23.4982 7.49683C23.4024 7.45586 23.2999 7.43477 23.1962 7.43477ZM26.6678 8.73912C26.3245 8.73912 25.9889 8.63394 25.7034 8.43687C25.418 8.2398 25.1955 7.95969 25.0641 7.63198C24.9328 7.30426 24.8984 6.94365 24.9654 6.59575C25.0323 6.24785 25.1977 5.92828 25.4404 5.67746C25.6832 5.42664 25.9924 5.25582 26.3292 5.18662C26.6659 5.11742 27.0149 5.15294 27.332 5.28868C27.6492 5.42443 27.9203 5.6543 28.111 5.94924C28.3018 6.24417 28.4036 6.59093 28.4036 6.94564C28.4027 7.42104 28.2196 7.87672 27.8942 8.21287C27.5689 8.54903 27.1279 8.73826 26.6678 8.73912ZM26.6678 5.80434C26.4493 5.80434 26.2358 5.87127 26.0541 5.99668C25.8725 6.12209 25.7309 6.30034 25.6473 6.50888C25.5637 6.71743 25.5418 6.94691 25.5844 7.1683C25.627 7.38969 25.7322 7.59305 25.8867 7.75267C26.0412 7.91228 26.238 8.02098 26.4523 8.06502C26.6666 8.10906 26.8887 8.08645 27.0905 8.00007C27.2923 7.91369 27.4648 7.7674 27.5862 7.57972C27.7076 7.39203 27.7724 7.17137 27.7724 6.94564C27.7724 6.64295 27.656 6.35265 27.4488 6.13862C27.2417 5.92458 26.9607 5.80434 26.6678 5.80434ZM29.3503 13.9565H23.9852C23.9015 13.9565 23.8213 13.9222 23.7621 13.861C23.7029 13.7999 23.6696 13.7169 23.6696 13.6304C23.6696 13.544 23.7029 13.461 23.7621 13.3999C23.8213 13.3387 23.9015 13.3043 23.9852 13.3043H29.0347V11.4848C29.0339 11.0094 28.8508 10.5537 28.5254 10.2175C28.2001 9.88139 27.7591 9.69216 27.299 9.6913H26.0366C25.7024 9.69276 25.3758 9.79384 25.0959 9.98241C24.816 10.171 24.5947 10.439 24.4586 10.7543C24.4434 10.796 24.42 10.834 24.3901 10.8659C24.3601 10.8979 24.3241 10.9232 24.2843 10.9402C24.2445 10.9573 24.2017 10.9657 24.1586 10.965C24.1156 10.9643 24.0731 10.9546 24.0338 10.9363C23.9945 10.918 23.9593 10.8916 23.9302 10.8587C23.9012 10.8258 23.879 10.7871 23.865 10.745C23.851 10.7029 23.8455 10.6583 23.8488 10.6139C23.8521 10.5695 23.8642 10.5263 23.8842 10.487C24.0699 10.0557 24.3727 9.68935 24.7558 9.43236C25.139 9.17537 25.5861 9.03877 26.0429 9.03912H27.3053C27.933 9.03912 28.5351 9.29679 28.979 9.75544C29.4229 10.2141 29.6722 10.8362 29.6722 11.4848V13.6304C29.6723 13.6738 29.6639 13.7168 29.6476 13.7567C29.6314 13.7967 29.6076 13.833 29.5776 13.8633C29.5476 13.8937 29.5121 13.9176 29.4731 13.9336C29.434 13.9496 29.3923 13.9574 29.3503 13.9565Z" fill="white"/>
<path d="M25.2476 13.9565H21.1448C21.0611 13.9565 20.9808 13.9222 20.9217 13.861C20.8625 13.7998 20.8292 13.7169 20.8292 13.6304V12.4891C20.8292 11.8405 21.0786 11.2184 21.5225 10.7598C21.9664 10.3011 22.5684 10.0435 23.1962 10.0435C23.8239 10.0435 24.426 10.3011 24.8699 10.7598C25.3138 11.2184 25.5631 11.8405 25.5631 12.4891V13.6304C25.5631 13.7169 25.5299 13.7998 25.4707 13.861C25.4115 13.9222 25.3313 13.9565 25.2476 13.9565ZM21.4604 13.3043H24.932V12.4891C24.932 12.0135 24.7491 11.5573 24.4236 11.2209C24.098 10.8846 23.6565 10.6956 23.1962 10.6956C22.7358 10.6956 22.2943 10.8846 21.9688 11.2209C21.6433 11.5573 21.4604 12.0135 21.4604 12.4891V13.3043Z" fill="white"/>
<path d="M22.4072 12.9783C22.3235 12.9783 22.2432 12.9439 22.184 12.8828C22.1249 12.8216 22.0916 12.7387 22.0916 12.6522V12C22.0916 11.9135 22.1249 11.8306 22.184 11.7694C22.2432 11.7083 22.3235 11.6739 22.4072 11.6739C22.4909 11.6739 22.5712 11.7083 22.6304 11.7694C22.6896 11.8306 22.7228 11.9135 22.7228 12V12.6522C22.7228 12.7387 22.6896 12.8216 22.6304 12.8828C22.5712 12.9439 22.4909 12.9783 22.4072 12.9783ZM28.0879 12.9293C28.0042 12.9293 27.9239 12.895 27.8648 12.8338C27.8056 12.7727 27.7723 12.6897 27.7723 12.6033V11.9511C27.7723 11.8646 27.8056 11.7817 27.8648 11.7205C27.9239 11.6594 28.0042 11.625 28.0879 11.625C28.1716 11.625 28.2519 11.6594 28.3111 11.7205C28.3703 11.7817 28.4035 11.8646 28.4035 11.9511V12.6033C28.4035 12.6897 28.3703 12.7727 28.3111 12.8338C28.2519 12.895 28.1716 12.9293 28.0879 12.9293Z" fill="white"/>
</g>
</g>
<path d="M62.0672 34.022C61.6512 34.022 61.3132 33.9266 61.0532 33.736C60.8105 33.5453 60.6632 33.294 60.6112 32.982C60.5592 32.6526 60.6198 32.2886 60.7932 31.89L67.6572 16.68C67.8825 16.1773 68.1512 15.822 68.4632 15.614C68.7925 15.3886 69.1652 15.276 69.5812 15.276C69.9798 15.276 70.3352 15.3886 70.6472 15.614C70.9765 15.822 71.2538 16.1773 71.4792 16.68L78.3692 31.89C78.5598 32.2886 78.6292 32.6526 78.5772 32.982C78.5252 33.3113 78.3778 33.5713 78.1352 33.762C77.8925 33.9353 77.5718 34.022 77.1732 34.022C76.6878 34.022 76.3065 33.9093 76.0292 33.684C75.7692 33.4413 75.5352 33.0773 75.3272 32.592L73.6372 28.666L75.0412 29.576H64.0692L65.4732 28.666L63.8092 32.592C63.5838 33.0946 63.3498 33.4586 63.1072 33.684C62.8645 33.9093 62.5178 34.022 62.0672 34.022ZM69.5292 19.098L65.8892 27.756L65.2132 26.924H73.8972L73.2472 27.756L69.5812 19.098H69.5292Z" fill="#FFC107"/>
<path d="M85.2628 34.074C83.8242 34.074 82.7408 33.6666 82.0128 32.852C81.2848 32.02 80.9208 30.8066 80.9208 29.212V16.914C80.9208 16.3766 81.0595 15.9693 81.3368 15.692C81.6142 15.4146 82.0128 15.276 82.5328 15.276C83.0528 15.276 83.4515 15.4146 83.7288 15.692C84.0235 15.9693 84.1708 16.3766 84.1708 16.914V29.056C84.1708 29.8533 84.3355 30.4426 84.6648 30.824C85.0115 31.2053 85.4968 31.396 86.1208 31.396C86.2595 31.396 86.3895 31.396 86.5108 31.396C86.6322 31.3786 86.7535 31.3613 86.8748 31.344C87.1175 31.3093 87.2822 31.3786 87.3688 31.552C87.4555 31.708 87.4988 32.0373 87.4988 32.54C87.4988 32.9733 87.4122 33.3113 87.2388 33.554C87.0655 33.7966 86.7795 33.944 86.3808 33.996C86.2075 34.0133 86.0255 34.0306 85.8348 34.048C85.6442 34.0653 85.4535 34.074 85.2628 34.074ZM90.8356 33.996C90.3156 33.996 89.9169 33.84 89.6396 33.528C89.3622 33.216 89.2236 32.7826 89.2236 32.228V22.686C89.2236 22.114 89.3622 21.6806 89.6396 21.386C89.9169 21.074 90.3156 20.918 90.8356 20.918C91.3556 20.918 91.7542 21.074 92.0316 21.386C92.3262 21.6806 92.4736 22.114 92.4736 22.686V32.228C92.4736 32.7826 92.3349 33.216 92.0576 33.528C91.7802 33.84 91.3729 33.996 90.8356 33.996ZM90.8356 18.5C90.2289 18.5 89.7522 18.3526 89.4056 18.058C89.0762 17.746 88.9116 17.3213 88.9116 16.784C88.9116 16.2293 89.0762 15.8046 89.4056 15.51C89.7522 15.2153 90.2289 15.068 90.8356 15.068C91.4596 15.068 91.9362 15.2153 92.2656 15.51C92.5949 15.8046 92.7596 16.2293 92.7596 16.784C92.7596 17.3213 92.5949 17.746 92.2656 18.058C91.9362 18.3526 91.4596 18.5 90.8356 18.5ZM97.5145 34.022C96.9945 34.022 96.5959 33.8833 96.3185 33.606C96.0412 33.3113 95.9025 32.8953 95.9025 32.358V22.53C95.9025 21.9926 96.0412 21.5853 96.3185 21.308C96.5959 21.0306 96.9859 20.892 97.4885 20.892C97.9912 20.892 98.3812 21.0306 98.6585 21.308C98.9359 21.5853 99.0745 21.9926 99.0745 22.53V24.428L98.7885 23.648C99.1352 22.7813 99.6725 22.0966 100.401 21.594C101.129 21.0913 101.995 20.84 103.001 20.84C104.023 20.84 104.864 21.0826 105.523 21.568C106.181 22.0533 106.641 22.7986 106.901 23.804H106.537C106.883 22.8853 107.455 22.166 108.253 21.646C109.05 21.1086 109.969 20.84 111.009 20.84C111.979 20.84 112.777 21.0306 113.401 21.412C114.042 21.7933 114.519 22.374 114.831 23.154C115.143 23.9166 115.299 24.8873 115.299 26.066V32.358C115.299 32.8953 115.151 33.3113 114.857 33.606C114.579 33.8833 114.181 34.022 113.661 34.022C113.141 34.022 112.742 33.8833 112.465 33.606C112.187 33.3113 112.049 32.8953 112.049 32.358V26.196C112.049 25.2253 111.884 24.5146 111.555 24.064C111.243 23.6133 110.705 23.388 109.943 23.388C109.093 23.388 108.426 23.6913 107.941 24.298C107.455 24.8873 107.213 25.7106 107.213 26.768V32.358C107.213 32.8953 107.074 33.3113 106.797 33.606C106.519 33.8833 106.121 34.022 105.601 34.022C105.081 34.022 104.673 33.8833 104.379 33.606C104.101 33.3113 103.963 32.8953 103.963 32.358V26.196C103.963 25.2253 103.798 24.5146 103.469 24.064C103.157 23.6133 102.628 23.388 101.883 23.388C101.033 23.388 100.366 23.6913 99.8805 24.298C99.3952 24.8873 99.1525 25.7106 99.1525 26.768V32.358C99.1525 33.4673 98.6065 34.022 97.5145 34.022ZM124.917 34.074C123.479 34.074 122.239 33.8053 121.199 33.268C120.159 32.7306 119.353 31.968 118.781 30.98C118.227 29.992 117.949 28.822 117.949 27.47C117.949 26.1526 118.218 25 118.755 24.012C119.31 23.024 120.064 22.2526 121.017 21.698C121.988 21.126 123.089 20.84 124.319 20.84C125.221 20.84 126.027 20.9873 126.737 21.282C127.465 21.5766 128.081 22.0013 128.583 22.556C129.103 23.1106 129.493 23.7866 129.753 24.584C130.031 25.364 130.169 26.248 130.169 27.236C130.169 27.548 130.057 27.7906 129.831 27.964C129.623 28.12 129.32 28.198 128.921 28.198H120.575V26.326H127.881L127.465 26.716C127.465 25.9186 127.344 25.2513 127.101 24.714C126.876 24.1766 126.538 23.7693 126.087 23.492C125.654 23.1973 125.108 23.05 124.449 23.05C123.721 23.05 123.097 23.2233 122.577 23.57C122.075 23.8993 121.685 24.376 121.407 25C121.147 25.6066 121.017 26.3346 121.017 27.184V27.366C121.017 28.7873 121.347 29.8533 122.005 30.564C122.681 31.2573 123.669 31.604 124.969 31.604C125.42 31.604 125.923 31.552 126.477 31.448C127.049 31.3266 127.587 31.1273 128.089 30.85C128.453 30.642 128.774 30.5553 129.051 30.59C129.329 30.6073 129.545 30.7026 129.701 30.876C129.875 31.0493 129.979 31.266 130.013 31.526C130.048 31.7686 129.996 32.02 129.857 32.28C129.736 32.54 129.519 32.7653 129.207 32.956C128.601 33.3373 127.899 33.6233 127.101 33.814C126.321 33.9873 125.593 34.074 124.917 34.074ZM134.355 34.022C133.835 34.022 133.436 33.8833 133.159 33.606C132.882 33.3113 132.743 32.8953 132.743 32.358V22.53C132.743 21.9926 132.882 21.5853 133.159 21.308C133.436 21.0306 133.826 20.892 134.329 20.892C134.832 20.892 135.222 21.0306 135.499 21.308C135.776 21.5853 135.915 21.9926 135.915 22.53V24.298L135.629 23.648C136.01 22.7293 136.6 22.036 137.397 21.568C138.212 21.0826 139.13 20.84 140.153 20.84C141.176 20.84 142.016 21.0306 142.675 21.412C143.334 21.7933 143.828 22.374 144.157 23.154C144.486 23.9166 144.651 24.8873 144.651 26.066V32.358C144.651 32.8953 144.512 33.3113 144.235 33.606C143.958 33.8833 143.559 34.022 143.039 34.022C142.519 34.022 142.112 33.8833 141.817 33.606C141.54 33.3113 141.401 32.8953 141.401 32.358V26.222C141.401 25.234 141.21 24.5146 140.829 24.064C140.465 23.6133 139.893 23.388 139.113 23.388C138.16 23.388 137.397 23.6913 136.825 24.298C136.27 24.8873 135.993 25.676 135.993 26.664V32.358C135.993 33.4673 135.447 34.022 134.355 34.022ZM153.776 34.074C152.649 34.074 151.705 33.8833 150.942 33.502C150.197 33.1206 149.642 32.566 149.278 31.838C148.914 31.0926 148.732 30.174 148.732 29.082V23.544H147.38C146.964 23.544 146.643 23.44 146.418 23.232C146.193 23.0066 146.08 22.7033 146.08 22.322C146.08 21.9233 146.193 21.62 146.418 21.412C146.643 21.204 146.964 21.1 147.38 21.1H148.732V18.734C148.732 18.1966 148.871 17.7893 149.148 17.512C149.443 17.2346 149.85 17.096 150.37 17.096C150.89 17.096 151.289 17.2346 151.566 17.512C151.843 17.7893 151.982 18.1966 151.982 18.734V21.1H154.738C155.154 21.1 155.475 21.204 155.7 21.412C155.925 21.62 156.038 21.9233 156.038 22.322C156.038 22.7033 155.925 23.0066 155.7 23.232C155.475 23.44 155.154 23.544 154.738 23.544H151.982V28.9C151.982 29.732 152.164 30.356 152.528 30.772C152.892 31.188 153.481 31.396 154.296 31.396C154.591 31.396 154.851 31.37 155.076 31.318C155.301 31.266 155.501 31.2313 155.674 31.214C155.882 31.1966 156.055 31.266 156.194 31.422C156.333 31.5606 156.402 31.8553 156.402 32.306C156.402 32.6526 156.341 32.9646 156.22 33.242C156.116 33.502 155.917 33.684 155.622 33.788C155.397 33.8573 155.102 33.918 154.738 33.97C154.374 34.0393 154.053 34.074 153.776 34.074ZM162.117 34.074C161.198 34.074 160.375 33.9006 159.647 33.554C158.936 33.19 158.373 32.7046 157.957 32.098C157.558 31.4913 157.359 30.8066 157.359 30.044C157.359 29.108 157.601 28.3713 158.087 27.834C158.572 27.2793 159.361 26.8806 160.453 26.638C161.545 26.3953 163.009 26.274 164.847 26.274H166.147V28.146H164.873C163.798 28.146 162.94 28.198 162.299 28.302C161.657 28.406 161.198 28.588 160.921 28.848C160.661 29.0906 160.531 29.4373 160.531 29.888C160.531 30.46 160.73 30.928 161.129 31.292C161.527 31.656 162.082 31.838 162.793 31.838C163.365 31.838 163.867 31.708 164.301 31.448C164.751 31.1706 165.107 30.798 165.367 30.33C165.627 29.862 165.757 29.3246 165.757 28.718V25.728C165.757 24.8613 165.566 24.2373 165.185 23.856C164.803 23.4746 164.162 23.284 163.261 23.284C162.758 23.284 162.212 23.3446 161.623 23.466C161.051 23.5873 160.444 23.7953 159.803 24.09C159.473 24.246 159.179 24.2893 158.919 24.22C158.676 24.1506 158.485 24.012 158.347 23.804C158.208 23.5786 158.139 23.336 158.139 23.076C158.139 22.816 158.208 22.5646 158.347 22.322C158.485 22.062 158.719 21.8713 159.049 21.75C159.846 21.4206 160.609 21.1866 161.337 21.048C162.082 20.9093 162.758 20.84 163.365 20.84C164.613 20.84 165.635 21.0306 166.433 21.412C167.247 21.7933 167.854 22.374 168.253 23.154C168.651 23.9166 168.851 24.9046 168.851 26.118V32.358C168.851 32.8953 168.721 33.3113 168.461 33.606C168.201 33.8833 167.828 34.022 167.343 34.022C166.857 34.022 166.476 33.8833 166.199 33.606C165.939 33.3113 165.809 32.8953 165.809 32.358V31.11H166.017C165.895 31.7166 165.653 32.2453 165.289 32.696C164.942 33.1293 164.5 33.4673 163.963 33.71C163.425 33.9526 162.81 34.074 162.117 34.074ZM173.813 34.022C173.276 34.022 172.86 33.8833 172.565 33.606C172.288 33.3113 172.149 32.8953 172.149 32.358V22.53C172.149 21.9926 172.288 21.5853 172.565 21.308C172.843 21.0306 173.233 20.892 173.735 20.892C174.238 20.892 174.628 21.0306 174.905 21.308C175.183 21.5853 175.321 21.9926 175.321 22.53V24.168H175.061C175.304 23.128 175.781 22.3393 176.491 21.802C177.202 21.2646 178.147 20.944 179.325 20.84C179.689 20.8053 179.975 20.9006 180.183 21.126C180.409 21.334 180.539 21.6633 180.573 22.114C180.608 22.5473 180.504 22.9026 180.261 23.18C180.036 23.44 179.689 23.596 179.221 23.648L178.649 23.7C177.592 23.804 176.795 24.1333 176.257 24.688C175.72 25.2253 175.451 25.988 175.451 26.976V32.358C175.451 32.8953 175.313 33.3113 175.035 33.606C174.758 33.8833 174.351 34.022 173.813 34.022ZM183.943 33.996C183.423 33.996 183.024 33.84 182.747 33.528C182.47 33.216 182.331 32.7826 182.331 32.228V22.686C182.331 22.114 182.47 21.6806 182.747 21.386C183.024 21.074 183.423 20.918 183.943 20.918C184.463 20.918 184.862 21.074 185.139 21.386C185.434 21.6806 185.581 22.114 185.581 22.686V32.228C185.581 32.7826 185.442 33.216 185.165 33.528C184.888 33.84 184.48 33.996 183.943 33.996ZM183.943 18.5C183.336 18.5 182.86 18.3526 182.513 18.058C182.184 17.746 182.019 17.3213 182.019 16.784C182.019 16.2293 182.184 15.8046 182.513 15.51C182.86 15.2153 183.336 15.068 183.943 15.068C184.567 15.068 185.044 15.2153 185.373 15.51C185.702 15.8046 185.867 16.2293 185.867 16.784C185.867 17.3213 185.702 17.746 185.373 18.058C185.044 18.3526 184.567 18.5 183.943 18.5ZM189.738 33.814C189.409 33.814 189.131 33.736 188.906 33.58C188.698 33.4066 188.559 33.19 188.49 32.93C188.421 32.67 188.421 32.3926 188.49 32.098C188.577 31.786 188.741 31.4913 188.984 31.214L195.718 22.764V23.544H189.582C189.183 23.544 188.871 23.44 188.646 23.232C188.438 23.0066 188.334 22.7033 188.334 22.322C188.334 21.9233 188.438 21.62 188.646 21.412C188.871 21.204 189.183 21.1 189.582 21.1H197.278C197.659 21.1 197.971 21.1866 198.214 21.36C198.457 21.516 198.613 21.724 198.682 21.984C198.769 22.244 198.777 22.5213 198.708 22.816C198.639 23.1106 198.483 23.388 198.24 23.648L191.376 32.228V31.37H197.876C198.708 31.37 199.124 31.7773 199.124 32.592C199.124 32.9733 199.011 33.2766 198.786 33.502C198.578 33.71 198.275 33.814 197.876 33.814H189.738ZM207.284 34.074C205.846 34.074 204.606 33.8053 203.566 33.268C202.526 32.7306 201.72 31.968 201.148 30.98C200.594 29.992 200.316 28.822 200.316 27.47C200.316 26.1526 200.585 25 201.122 24.012C201.677 23.024 202.431 22.2526 203.384 21.698C204.355 21.126 205.456 20.84 206.686 20.84C207.588 20.84 208.394 20.9873 209.104 21.282C209.832 21.5766 210.448 22.0013 210.95 22.556C211.47 23.1106 211.86 23.7866 212.12 24.584C212.398 25.364 212.536 26.248 212.536 27.236C212.536 27.548 212.424 27.7906 212.198 27.964C211.99 28.12 211.687 28.198 211.288 28.198H202.942V26.326H210.248L209.832 26.716C209.832 25.9186 209.711 25.2513 209.468 24.714C209.243 24.1766 208.905 23.7693 208.454 23.492C208.021 23.1973 207.475 23.05 206.816 23.05C206.088 23.05 205.464 23.2233 204.944 23.57C204.442 23.8993 204.052 24.376 203.774 25C203.514 25.6066 203.384 26.3346 203.384 27.184V27.366C203.384 28.7873 203.714 29.8533 204.372 30.564C205.048 31.2573 206.036 31.604 207.336 31.604C207.787 31.604 208.29 31.552 208.844 31.448C209.416 31.3266 209.954 31.1273 210.456 30.85C210.82 30.642 211.141 30.5553 211.418 30.59C211.696 30.6073 211.912 30.7026 212.068 30.876C212.242 31.0493 212.346 31.266 212.38 31.526C212.415 31.7686 212.363 32.02 212.224 32.28C212.103 32.54 211.886 32.7653 211.574 32.956C210.968 33.3373 210.266 33.6233 209.468 33.814C208.688 33.9873 207.96 34.074 207.284 34.074Z" fill="#2196F3"/>
<defs>
<clipPath id="clip0_104_902">
<rect x="48.4754" width="48" height="48.4754" rx="8" transform="rotate(90 48.4754 0)" fill="white"/>
</clipPath>
<clipPath id="clip1_104_902">
<rect width="10.099" height="9.82098" fill="white" transform="translate(32.9902 32.6138)"/>
</clipPath>
<clipPath id="clip2_104_902">
<rect width="10.099" height="9.82098" fill="white" transform="translate(5.38611 33.3094)"/>
</clipPath>
<clipPath id="clip3_104_902">
<rect width="10.099" height="10.4348" fill="white" transform="translate(20.1981 4.17389)"/>
</clipPath>
</defs>
</svg>
