<svg width="48" height="49" viewBox="0 0 48 49" fill="none" xmlns="http://www.w3.org/2000/svg">
<rect x="4" y="4.42871" width="40" height="40" rx="8" fill="white"/>
<path d="M42 39.4287V9.42871C42 7.77171 40.657 6.42871 39 6.42871H9C7.343 6.42871 6 7.77171 6 9.42871V39.4287C6 41.0857 7.343 42.4287 9 42.4287H39C40.657 42.4287 42 41.0857 42 39.4287Z" fill="#1C9957"/>
<path d="M8.99994 42.4287H38.9999C40.6569 42.4287 23.9999 26.4287 23.9999 26.4287C23.9999 26.4287 7.34294 42.4287 8.99994 42.4287Z" fill="#3E7BF1"/>
<path d="M42 39.4284V9.42841C42 7.77141 26 24.4284 26 24.4284C26 24.4284 42 41.0854 42 39.4284Z" fill="#CBCCC9"/>
<path d="M39 42.4287C40.657 42.4287 42 41.0857 42 39.4287V39.1837L26.245 23.4287L23 26.6737L38.755 42.4287H39Z" fill="#EFEFEF"/>
<path d="M42 9.42871C42 7.77171 40.657 6.42871 39 6.42871H38.755L6 39.1837V39.4287C6 41.0857 7.343 42.4287 9 42.4287H9.245L42 9.67371V9.42871Z" fill="#FFD73D"/>
<path d="M36 2.42871C30.477 2.42871 26 6.90571 26 12.4287C26 19.2417 33.666 21.7237 35.333 32.2797C35.44 32.9597 35.448 33.4287 36 33.4287C36.552 33.4287 36.56 32.9597 36.667 32.2797C38.334 21.7237 46 19.2417 46 12.4287C46 6.90571 41.523 2.42871 36 2.42871Z" fill="#D73F35"/>
<path d="M36 8.92871C35.5404 8.92871 35.0852 9.01924 34.6606 9.19513C34.236 9.37102 33.8501 9.62883 33.5251 9.95384C33.2001 10.2788 32.9423 10.6647 32.7664 11.0893C32.5905 11.514 32.5 11.9691 32.5 12.4287C32.5 12.8883 32.5905 13.3435 32.7664 13.7681C32.9423 14.1927 33.2001 14.5786 33.5251 14.9036C33.8501 15.2286 34.236 15.4864 34.6606 15.6623C35.0852 15.8382 35.5404 15.9287 36 15.9287C36.4596 15.9287 36.9148 15.8382 37.3394 15.6623C37.764 15.4864 38.1499 15.2286 38.4749 14.9036C38.7999 14.5786 39.0577 14.1927 39.2336 13.7681C39.4095 13.3435 39.5 12.8883 39.5 12.4287C39.5 11.9691 39.4095 11.514 39.2336 11.0893C39.0577 10.6647 38.7999 10.2788 38.4749 9.95384C38.1499 9.62883 37.764 9.37102 37.3394 9.19513C36.9148 9.01924 36.4596 8.92871 36 8.92871Z" fill="#752622"/>
<path d="M14.4929 12.9597V15.0607H17.4869C17.0949 16.3347 16.0319 17.2457 14.4929 17.2457C12.6599 17.2457 11.1749 15.7607 11.1749 13.9277C11.1749 12.0947 12.6609 10.6097 14.4929 10.6097C15.3169 10.6097 16.0689 10.9117 16.6489 11.4087L18.1969 9.86171C17.2199 8.97171 15.9199 8.42871 14.4929 8.42871C11.4549 8.42871 8.99194 10.8917 8.99194 13.9287C8.99194 16.9657 11.4549 19.4287 14.4929 19.4287C19.3029 19.4287 20.1299 15.1117 19.6769 12.9677L14.4929 12.9597Z" fill="white"/>
</svg>
